<!-- Generated by IcoMoon.io -->
<svg version="1.1" xmlns="http://www.w3.org/2000/svg" width="183" height="118" viewBox="0 0 40 32">
<title>saturn</title>
<path fill="#fec240" d="M30.706 15.479c0.593 5.843-3.667 11.038-9.51 11.613-5.843 0.593-11.038-3.667-11.613-9.51-0.593-5.825 3.667-11.020 9.492-11.613 5.843-0.575 11.038 3.685 11.631 9.51z"></path>
<path fill="#fee03e" d="M16.108 15.964c0 0 6.166-0.396 11.901-6.544-0.827-0.917-1.816-1.69-2.912-2.265-1.204 2.499-3.739 5.627-8.989 8.809z"></path>
<path fill="#fee03e" d="M30.67 17.798c-5.106 4.764-10.948 7.263-14.742 8.485 0.324 0.144 0.665 0.27 1.007 0.378 2.337-0.539 6.31-1.816 9.222-4.476 0 0-1.24 2.948-5.807 4.962 0.27 0 0.557-0.018 0.827-0.054 0.809-0.072 1.582-0.252 2.319-0.503 0.953-0.557 1.87-1.204 2.697-1.96 0 0-0.162 0.395-0.611 1.007 2.787-1.672 4.71-4.548 5.088-7.838z"></path>
<path fill="#fee03e" d="M19.074 5.969c-4.62 0.467-8.252 3.829-9.276 8.108 3.649-1.978 8.539-4.854 12.333-7.982-0.971-0.18-1.995-0.216-3.056-0.126z"></path>
<path fill="#fee03e" d="M22.939 15.91c-2.607 2.589-7.964 4.728-11.937 6.058 0.234 0.395 0.485 0.755 0.773 1.115 8.288-3.11 11.164-7.173 11.164-7.173z"></path>
<path fill="#fee03e" d="M30.13 12.944c-2.912 3.344-9.043 9.24-17.384 11.2 0.611 0.593 1.312 1.133 2.049 1.564 0.378 0.216 0.755 0.413 1.151 0.575 3.775-1.222 9.618-3.721 14.742-8.485 0.054-0.395 0.072-0.791 0.072-1.204 0-0.378-0.018-0.737-0.054-1.115-0.090-0.881-0.288-1.726-0.575-2.535z"></path>
<path fill="#fee03e" d="M26.157 22.184c-2.912 2.679-6.885 3.937-9.222 4.476 1.079 0.342 2.229 0.521 3.416 0.485 4.566-2.013 5.807-4.962 5.807-4.962z"></path>
<path fill="#fee03e" d="M23.515 26.607c0.737-0.252 1.438-0.575 2.103-0.971 0.431-0.611 0.611-1.007 0.611-1.007-0.845 0.773-1.78 1.42-2.715 1.978z"></path>
<path fill="#fee03e" d="M26.175 12.638c0 0 1.582-0.467 3.038-1.618-0.162-0.27-0.342-0.539-0.521-0.791-0.719 0.827-1.582 1.708-2.517 2.409z"></path>
<path fill="#f9a040" d="M36.494 8.378c-0.521-1.043-3.829-0.539-8.449 1.079 0.27 0.288 0.521 0.611 0.737 0.935 1.995-0.503 3.344-0.539 3.631 0.018 0.27 0.557-0.557 1.618-2.175 2.912-2.013 1.618-5.213 3.613-8.989 5.483-3.757 1.87-7.299 3.254-9.798 3.883-1.995 0.503-3.344 0.539-3.631-0.018-0.27-0.557 0.557-1.618 2.175-2.912-0.126-0.378-0.216-0.755-0.288-1.151-4.081 2.715-6.472 5.052-5.951 6.094s3.829 0.539 8.449-1.079c2.787-0.971 6.022-2.355 9.42-4.045s6.454-3.452 8.899-5.088c4.099-2.733 6.49-5.070 5.969-6.112z"></path>
</svg>
