<!-- Generated by IcoMoon.io -->
<svg version="1.1" xmlns="http://www.w3.org/2000/svg" viewBox="0 0 32 32">
<title>sputnik-fornat</title>
<path fill="#4f7df0" d="M12.544 18.497l-1.237 1.237 0.366 0.366 1.237-1.237-0.366-0.366zM19.734 11.302l-1.167 1.167 0.366 0.366 1.167-1.167-0.366-0.366z"></path>
<path fill="#c4d3d7" d="M11.697 6.661c-0.679 0-1.33 0.267-1.806 0.749l-2.41 2.41c-0.023 0.023-0.046 0.046-0.064 0.070 0.023-0.023 0.041-0.046 0.064-0.070l1.191-1.191c-0.017 0.017-1.307 1.33 1.191 4.048l4.454-4.454-0.813-0.813c-0.476-0.482-1.127-0.749-1.806-0.749z"></path>
<path fill="#fff" d="M15.042 8.944l-4.46 4.46 8.502 8.502 4.46-4.46-8.502-8.502z"></path>
<path fill="#c4d3d7" d="M23.544 17.452l-4.46 4.46 3.235 1.8 0.012 0.012 2.509-2.503-1.295-3.769z"></path>
<path fill="#fff" d="M25.786 25.71v0zM27.882 27.975c0.093 0 0.163-0.076 0.163-0.168 0-0.041-0.017-0.087-0.046-0.116l-2.097-2.097c-0.070-0.058-0.174-0.041-0.232 0.029-0.046 0.058-0.046 0.145 0 0.203l2.097 2.097c0.029 0.035 0.076 0.052 0.116 0.052z"></path>
<path fill="#4f7df0" d="M24.862 21.198l-2.532 2.526 1.011 1.005 2.503-2.503h0.006l0.023-0.023-1.011-1.005z"></path>
<path fill="#c4d3d7" d="M22.301 25.774v0zM25.838 22.226l-2.503 2.503 0.645 2.085 3.967-3.967-2.108-0.621z"></path>
<path fill="#4f7df0" d="M27.958 22.853l-3.967 3.967 0.685 0.685-1.063 1.069 5.029-5.029-0.685-0.691z"></path>
<path fill="#ec007b" d="M28.364 27.325c0.267 0.267 0.267 0.703 0 0.964-0.267 0.267-0.703 0.267-0.964 0-0.267-0.267-0.267-0.697 0-0.964 0.267-0.261 0.697-0.261 0.964 0zM8.125 15.158c0.093 0.093 0.221 0.139 0.354 0.139-0.134 0-0.261-0.052-0.354-0.139zM9.013 14.978v0zM7.962 14.792c0 0.134 0.052 0.267 0.151 0.36v0c-0.093-0.093-0.151-0.226-0.151-0.36zM14.856 7.893c-0.134 0-0.267 0.052-0.36 0.151l-4.629 4.629c0.11 0.122 0.226 0.244 0.354 0.372l0.36 0.36 4.634-4.634c0.197-0.203 0.197-0.523 0-0.726-0.093-0.093-0.226-0.151-0.36-0.151z"></path>
<path fill="#c4d3d7" d="M18.579 14.432c0.093 0 0.163-0.075 0.163-0.168 0-0.041-0.017-0.087-0.046-0.116l-3.665-3.665c-0.058-0.070-0.163-0.087-0.232-0.029s-0.087 0.163-0.029 0.232c0.006 0.012 0.017 0.023 0.029 0.029l3.665 3.665c0.029 0.035 0.076 0.052 0.116 0.052z"></path>
<path fill="#e1e0fe" d="M7.416 9.89c-0.929 1.005-0.906 2.561 0.058 3.537-0.964-0.976-0.993-2.532-0.058-3.537z"></path>
<path fill="#adb9d6" d="M8.677 8.63l-1.191 1.191c-0.023 0.023-0.046 0.046-0.064 0.070-0.929 1.005-0.906 2.561 0.058 3.537l0.012 0.006 0.813 0.813 1.568-1.568c-2.503-2.718-1.214-4.030-1.196-4.048z"></path>
<path fill="#e1e0fe" d="M21.297 24.764l-0.029 0.029 1.011 1.011 0.023-0.023v-0.006l-1.005-1.011zM22.33 23.724v0zM12.905 18.857v0zM9.013 14.966v0z"></path>
<path fill="#466eef" d="M12.544 18.491v0z"></path>
<path fill="#e1e0fe" d="M10.582 13.41l-1.562 1.562 8.502 8.502 1.562-1.562-8.502-8.502z"></path>
<path fill="#adb9d6" d="M19.084 21.912l-1.562 1.562 3.769 1.289 1.040-1.040-0.012-0.012-3.235-1.8z"></path>
<path fill="#466eef" d="M22.33 23.724l-1.040 1.040 1.011 1.011 1.040-1.045-1.011-1.005z"></path>
<path fill="#adb9d6" d="M23.341 24.729l-1.040 1.045 0.621 2.108 1.069-1.063-0.65-2.085v-0.006z"></path>
<path fill="#466eef" d="M23.991 26.82l-1.069 1.063 0.691 0.691 1.063-1.069-0.685-0.685z"></path>
<path fill="#e1e0fe" d="M8.833 15.158c-0.093 0.093-0.221 0.139-0.354 0.139 0.134 0 0.256-0.052 0.354-0.139z"></path>
<path fill="#d0007b" d="M9.861 12.672l-1.742 1.742c-0.197 0.197-0.203 0.523 0 0.726l0.012 0.012c0.093 0.093 0.221 0.139 0.354 0.139s0.256-0.052 0.354-0.139l0.174-0.174 1.556-1.562-0.36-0.36c-0.128-0.128-0.244-0.25-0.354-0.372z"></path>
<path fill="#4f7df0" d="M16.919 8.484l0.296-0.296 6.579 6.579-0.296 0.296z"></path>
<path fill="#4f7df0" d="M18.279 7.123l0.296-0.296 6.579 6.579-0.296 0.296z"></path>
<path fill="#4f7df0" d="M19.644 5.758l0.296-0.296 6.579 6.579-0.296 0.296z"></path>
<path fill="#4f7df0" d="M21.010 4.391l0.296-0.296 6.579 6.579-0.296 0.296z"></path>
<path fill="#4f7df0" d="M22.37 3.023l0.296-0.296 6.579 6.579-0.296 0.296z"></path>
<path fill="#4f7df0" d="M23.736 1.663l0.296-0.296 6.578 6.58-0.296 0.296z"></path>
<path fill="#4f7df0" d="M25.101 0.299l0.296-0.296 6.579 6.579-0.296 0.296z"></path>
<path fill="#4f7df0" d="M16.917 8.484l8.484-8.484 0.296 0.296-8.484 8.484z"></path>
<path fill="#4f7df0" d="M18.178 9.744l8.484-8.484 0.296 0.296-8.484 8.484z"></path>
<path fill="#4f7df0" d="M19.435 11.007l8.484-8.484 0.296 0.296-8.484 8.484z"></path>
<path fill="#4f7df0" d="M20.695 12.259l8.484-8.484 0.296 0.296-8.484 8.484z"></path>
<path fill="#4f7df0" d="M21.959 13.524l8.484-8.484 0.296 0.296-8.484 8.484z"></path>
<path fill="#4f7df0" d="M23.218 14.786l8.484-8.484 0.296 0.296-8.484 8.484z"></path>
<path fill="#4f7df0" d="M0.001 25.397l0.296-0.296 6.579 6.579-0.296 0.296z"></path>
<path fill="#4f7df0" d="M1.364 24.033l0.296-0.296 6.579 6.579-0.296 0.296z"></path>
<path fill="#4f7df0" d="M2.728 22.668l0.296-0.296 6.579 6.579-0.296 0.296z"></path>
<path fill="#4f7df0" d="M4.093 21.303l0.296-0.296 6.579 6.579-0.296 0.296z"></path>
<path fill="#4f7df0" d="M5.459 19.937l0.296-0.296 6.579 6.579-0.296 0.296z"></path>
<path fill="#4f7df0" d="M6.823 18.573l0.296-0.296 6.579 6.579-0.296 0.296z"></path>
<path fill="#4f7df0" d="M8.188 17.208l0.296-0.296 6.579 6.579-0.296 0.296z"></path>
<path fill="#4f7df0" d="M-0.002 25.398l8.484-8.484 0.296 0.296-8.484 8.484z"></path>
<path fill="#4f7df0" d="M1.258 26.659l8.484-8.484 0.296 0.296-8.484 8.484z"></path>
<path fill="#4f7df0" d="M2.519 27.923l8.485-8.483 0.296 0.296-8.485 8.483z"></path>
<path fill="#4f7df0" d="M3.782 29.184l8.484-8.484 0.296 0.296-8.484 8.484z"></path>
<path fill="#4f7df0" d="M5.041 30.445l8.484-8.484 0.296 0.296-8.484 8.484z"></path>
<path fill="#4f7df0" d="M6.3 31.699l8.484-8.484 0.296 0.296-8.484 8.484z"></path>
<path fill="#4f7df0" d="M4.785 5.041c0 0.192 0.157 0.348 0.348 0.343 0.192 0 0.348-0.157 0.343-0.348 0-0.192-0.157-0.343-0.348-0.348-0.192 0.006-0.343 0.163-0.343 0.354zM29.456 13.7c0 0.192 0.157 0.348 0.348 0.348s0.348-0.157 0.348-0.348-0.157-0.348-0.348-0.348-0.348 0.157-0.348 0.348z"></path>
<path fill="#fec240" d="M30.716 21.012c0 0.192 0.157 0.348 0.348 0.348s0.348-0.157 0.348-0.348-0.157-0.348-0.348-0.348-0.348 0.151-0.348 0.348zM5.024 16.918c0 0.192 0.157 0.348 0.348 0.348s0.348-0.157 0.348-0.348-0.157-0.348-0.348-0.348c-0.192-0.006-0.348 0.151-0.348 0.348 0-0.006 0-0.006 0 0zM16.29 3.903c0.035 0 0.064-0.029 0.064-0.070 0-0.017-0.006-0.035-0.017-0.046l-0.523-0.523c-0.023-0.023-0.070-0.023-0.093 0s-0.023 0.070 0 0.093l0.523 0.523c0.012 0.017 0.029 0.023 0.046 0.023z"></path>
<path fill="#fec240" d="M15.774 3.903c0.017 0 0.035-0.006 0.046-0.017l0.523-0.523c0.023-0.029 0.023-0.070 0-0.093-0.029-0.023-0.070-0.023-0.093 0l-0.523 0.523c-0.023 0.023-0.023 0.070 0 0.093 0.012 0.012 0.029 0.017 0.046 0.017z"></path>
<path fill="#4f7df0" d="M17.504 29.578c0.035 0 0.064-0.029 0.064-0.070 0-0.017-0.006-0.035-0.017-0.046l-0.523-0.523c-0.029-0.023-0.070-0.023-0.093 0.006-0.023 0.023-0.023 0.064 0 0.087l0.523 0.523c0.017 0.012 0.029 0.023 0.046 0.023z"></path>
<path fill="#4f7df0" d="M16.987 29.578c0.017 0 0.035-0.006 0.046-0.017l0.523-0.523c0.023-0.023 0.023-0.070 0-0.093s-0.070-0.023-0.093 0l-0.523 0.523c-0.023 0.023-0.023 0.070 0 0.093 0.006 0.012 0.029 0.017 0.046 0.017z"></path>
</svg>
