<svg id="Layer_1" xmlns="http://www.w3.org/2000/svg" viewBox="0 0 64.2 64.2"><style>.st0{fill:url(#SVGID_1_)}.st1{fill:#fff}</style><title>icon</title><linearGradient id="SVGID_1_" gradientUnits="userSpaceOnUse" x1="44.992" y1="-1.555" x2="19.178" y2="69.385" gradientTransform="matrix(1 0 0 -1 0 66)"><stop offset="0" stop-color="#de47ec"/><stop offset=".16" stop-color="#d550ed"/><stop offset=".44" stop-color="#bb67f0"/><stop offset=".79" stop-color="#928df5"/><stop offset="1" stop-color="#75a8f9"/></linearGradient><path class="st0" d="M12 0h40.2c6.6 0 12 5.4 12 12v40.2c0 6.6-5.4 12-12 12H12c-6.6 0-12-5.4-12-12V12C0 5.4 5.4 0 12 0z"/><path class="st1" d="M51.3 31.1c-.1-2 0-4 0-6v-3.8c.1-1.1 0-2.2-.2-3.3-.3-1-1-1-2-1.1-2.4-.1-4.8 0-7.2 0-5.3 0-10.6 0-16-.1-2.8 0-5.6.1-8.4.2-1 .1-2.7-.1-3.5.6-.5.5-.7 1.2-.7 1.9-.2 1.5-.3 3-.3 4.5-.1 3.2-.1 6.5-.3 9.7-.2 2.6-.1 5.2 0 7.9 0 1.5-.4 3.8.8 5s4 .7 5.5.7c2.8.1 5.6.2 8.4.2 5.3.1 10.5-.1 15.8.1 2.1.1 4.2 0 6.2-.3 1.2-.2 1.6-.9 1.7-2 .5-4.8.5-9.5.2-14.2zM16.1 18.2c.5 0 1-.1 1.5-.1 2-.1 4.1-.2 6.2-.2h18.9c2-.1 4.1-.1 6.2 0 .9.1 1 .2 1.1 1.2.1.9.2 1.9.2 2.8v.4c-11.9-.4-23.9-.5-35.8-.1 0-.7.1-1.3.2-2 .1-1.3.3-1.9 1.5-2zm34.1 21.6c0 1.6 0 3.2-.1 4.8-.1 1.2-.6 1.1-1.7 1.3-1.1.2-2.2.3-3.3.3-4.1.1-8.3-.1-12.4-.1-4.9 0-9.8-.1-14.7-.3-1.5-.1-3.9.2-4-1.8-.1-1.1 0-2.2-.1-3.3-.1-2.4-.1-4.8 0-7.2.2-3.5.1-7.1.3-10.6 12-.4 24-.3 35.9.1 0 1.7-.1 3.3-.1 5 0 4.1.3 7.9.2 11.8z"/><path class="st1" d="M17.2 21.4c.7-.1 1.5-.5 1.3-1.3-.1-.7-.7-1.3-1.4-1.3-.7.1-1.3.6-1.4 1.4-.1.6.4 1.2 1 1.3.2 0 .3 0 .5-.1zm-.5-1.1c.1-.2.2-.5.5-.5.2 0 .4.1.5.3.1.4-.1.5-.4.5h-.4c-.3-.2-.3-.2-.2-.3zm4.2 1.1c.8.1 1.4-.5 1.5-1.3.1-.7-.4-1.3-1.1-1.4h-.2c-.8-.1-1.4.5-1.5 1.2-.1.8.5 1.5 1.3 1.5zm-.5-1.5c.1-.3.4-.4.6-.4s.5.2.4.5c0 .3-.2.5-.5.5h-.1c-.2 0-.5-.3-.4-.6zm4.4 1.4c.8 0 1.4-.6 1.5-1.3 0-.8-.6-1.4-1.3-1.5h-.2c-.8.1-1.4.7-1.4 1.5 0 .7.6 1.3 1.3 1.3 0 .1.1 0 .1 0zm0-1.8c.3 0 .5.2.5.5s-.2.5-.4.5-.6-.1-.7-.3c0-.4.2-.7.6-.7zm2.4 7.5c-1.2-1-3-.2-4 .6-2.1 1.4-3.8 3.2-5.7 4.8-3 2.6.6 5.4 2.7 7 1.4 1 3 2.5 4.8 3 1.1.3 2.8-.1 2.9-1.5s-2.1-2.8-3-3.6c-.6-.5-1.2-1-1.8-1.4l-.8-.6c-.6-.4-.8-.3-.5-.9.8-1.5 8.2-5.1 5.4-7.4zm-6.5 8.3c.7.8 2.1 1.4 2.9 2.1.6.5 1.2 1.1 1.8 1.7.2.2 1 .7 1.1 1 .5 1.7-.8 1.5-1.7 1.3l.2-.2c.2-.1.3-.4.2-.6-.1-.2-.4-.3-.6-.2l-.5.4c-.1 0-.1.1-.2.2l-.6-.3.2-.1c.5-.3 0-1.1-.4-.8-.2.1-.4.2-.5.4-.2-.2-.4-.3-.7-.5l.4-.2c.5-.3.1-1-.4-.8l-.7.4-.4-.3.2-.1c.2-.2.2-.5 0-.6-.1-.1-.2-.1-.4-.1-.2.1-.3.2-.5.3l-.7-.5c.1-.1.2-.2.4-.2.2-.1.3-.4.2-.6-.1-.2-.4-.3-.6-.2-.2.1-.4.3-.6.4l-.5-.5.4-.3c.5-.3 0-1.1-.4-.8l-.6.4c-.2-.3-.3-.6-.4-.9h.3c.2 0 .4-.2.4-.4s-.2-.4-.4-.4h-.5c.1-.3.2-.6.4-.8l.5.5c.2.1.5.1.6-.1.1-.2.1-.5-.2-.6.1 0-.1-.1-.1-.1V33l-.1-.1.4-.3.5.5c.2.2.4.2.6 0 .2-.2.2-.4 0-.6-.1-.2-.3-.3-.4-.5l.6-.6.5.5c.2.2.5.1.6-.1.1-.2.1-.4 0-.6-.2-.2-.3-.3-.5-.4.2-.2.5-.4.7-.6l.5.5c.4.4 1-.2.6-.6-.1-.2-.3-.3-.4-.5l.3-.2.5-.4.2.3c.1.2.4.3.6.2.2-.1.3-.4.2-.6l-.3-.4c.2-.1.4-.3.6-.4l.4.4c.4.4 1-.2.6-.6l-.2-.2c.5-.3 1.1-.1 1.4.4v.1c.5.9 0 1.1-.6 1.7-1.5 1.5-3.3 2.5-4.8 4-.4.3-.6.8-.1 1.4zM44 29.7c-1.4-1-3-2.5-4.8-3-1.1-.3-2.8.1-2.9 1.5s2.1 2.8 3 3.6c.6.5 1.2 1 1.8 1.4l.8.6c.6.4.8.3.5.9-.9 1.5-8.3 5-5.5 7.3 1.2 1 2.9.2 4-.6 2.1-1.4 3.8-3.2 5.7-4.8 3.1-2.6-.6-5.4-2.6-6.9zm2 6.3c-1.5 1.2-2.8 2.6-4.3 3.7-.6.5-1.3 1-2 1.5-.8.4-1.5.7-2-.2-.2-.2-.2-.5-.1-.8.2.2.4.3.6.5.2.1.5.1.6-.1.1-.2.1-.5-.1-.6-.2-.1-.3-.3-.5-.4l.2-.2.4-.4.6.6c.2.2.4.2.6 0 .2-.2.2-.5 0-.6-.2-.2-.4-.3-.5-.5l.6-.5c.2.2.4.5.6.7.4.4 1-.2.6-.6-.2-.2-.3-.4-.5-.6l.5-.4.5.5c.2.2.5.2.6 0 .2-.2.2-.5 0-.6-.1-.2-.2-.3-.4-.4.2-.2.5-.4.7-.6l.3.3c.4.4 1-.2.6-.6l-.3-.3c.1-.2.3-.3.3-.5h.6c.2 0 .4-.2.4-.4s-.2-.4-.4-.4h-.8l-.4-.4.4-.2c.2-.1.3-.4.2-.6-.1-.2-.4-.3-.6-.2l-.8.4-.4-.3.4-.2c.2-.1.3-.4.2-.6-.1-.2-.4-.3-.6-.2l-.7.4H41c-.1-.1-.3-.2-.4-.3l-.2-.1c.2-.1.3-.2.5-.3.2-.1.3-.4.2-.6-.1-.2-.4-.3-.6-.2-.3.1-.5.3-.8.4l-.5-.5c.1-.1.2-.1.3-.2.2-.1.4-.3.3-.5-.1-.2-.3-.4-.5-.3-.3.1-.5.2-.7.4l-.6-.5c.1-.1.2-.2.4-.2.5-.3.1-1-.4-.8-.2.1-.3.2-.4.3-.4-1.6 1.1-1.4 1.8-1.1 1.6.8 3.1 1.7 4.4 2.9 1.5 1.2 4.6 3.3 2.2 5.4zm-12.8-9.5c-1.3 0-1.7 1.1-2 2.2-.8 2.4-1.4 4.9-1.9 7.4-.2 1.3-1.9 6.9 1.1 6.5 1.2-.1 1.9-1.4 2.3-2.3.7-2.1 1.3-4.3 1.6-6.5.2-1.1.4-2.1.6-3.2.3-.8.4-1.6.4-2.4-.1-1.2-1-1.6-2.1-1.7zm0 8.3c-.2 1-.5 1.9-.7 2.9-.3 1.2-.6 3.7-2.1 3.6-.8 0-.9-.1-.8-.6.1 0 .2.1.3.1.2.1.5-.1.5-.3s-.1-.5-.3-.5c-.2-.1-.3-.1-.5-.1 0-.2 0-.3.1-.5.2 0 .4.1.6.1.2 0 .4-.2.4-.4s-.2-.4-.4-.4-.3 0-.4-.1V38c.2 0 .4.1.6.1.2.1.5 0 .6-.3.1-.2 0-.5-.3-.6-.2-.1-.4-.1-.7-.1 0-.3.1-.5.1-.8.3 0 .5.1.7.2.2.1.5-.1.5-.3.1-.2-.1-.5-.3-.5-.3-.1-.5-.2-.8-.2 0-.2.1-.4.1-.6l.6.1c.6.1.8-.7.2-.9l-.6-.1c0-.2.1-.4.1-.6l.4.1c.2.1.5-.1.5-.3.1-.2-.1-.5-.3-.5l-.5-.1c0-.1 0-.2.1-.3l.8.2c.2.1.5-.1.5-.3.1-.2-.1-.5-.3-.5l-.8-.2c0-.2.1-.3.1-.5.2 0 .3.1.5.1s.5-.1.5-.4c0-.2-.1-.4-.3-.5l-.3-.2c0-.1.1-.2.1-.3.2 0 .3.1.5.1.2.1.5-.1.5-.3.1-.2-.1-.5-.3-.5-.1 0-.3-.1-.4-.1.1-.1.1-.2.2-.4.1.1.3.1.4.1.2.1.5-.1.6-.3.1-.2-.1-.5-.3-.5h-.2c.1-.1.3-.2.5-.2 2.1-.1.2 6.2 0 7.2z"/></svg>