<svg aria-hidden="true" style="position: absolute; width: 0; height: 0; overflow: hidden;" version="1.1" xmlns="http://www.w3.org/2000/svg" xmlns:xlink="http://www.w3.org/1999/xlink">
<defs>
<symbol id="icon-iron-man" viewBox="0 0 32 32">
<title>iron-man</title>
<path d="M22.893 4.061l-0.084 0.003c-0.089 0-0.177 0.004-0.267 0.008-0.051 0.003-0.104 0.008-0.156 0.013-0.067 0.004-0.133 0.013-0.203 0.020l-0.164 0.020c-0.071 0.011-0.141 0.024-0.213 0.037-0.1 0.019-0.2 0.040-0.299 0.064-0.036 0.011-0.073 0.019-0.111 0.027l-0.232 0.067c-0.013 0.005-0.031 0.009-0.047 0.013-1.405 0.444-2.607 1.407-3.347 2.733-0.020 0.031-0.040 0.063-0.056 0.093-0.013 0.031-0.032 0.057-0.048 0.088l-0.021 0.049c-0.4 0.793-0.627 1.689-0.627 2.637v1.067c-0.276 0-0.497 0.22-0.497 0.493s0.224 0.497 0.497 0.497v3.824c-1.341 0.133-2.635 0.581-3.765 1.307-0.324 0.208-0.633 0.436-0.92 0.677l-0.013 0.013c-0.005 0.004-0.013 0.013-0.019 0.016-0.1 0.093-0.195 0.18-0.289 0.26-0.253 0.216-0.52 0.413-0.8 0.591-0.007 0.004-0.009 0.009-0.013 0.013-0.347 0.213-0.632 0.369-0.904 0.493-0.213 0.093-0.429 0.171-0.659 0.243l-0.089 0.027c-0.023 0.009-0.047 0.016-0.072 0.023-0.673 0.207-1.373 0.313-2.093 0.313-1.853 0-3.58-0.703-4.88-1.92 0.607 0.213 1.247 0.324 1.9 0.324 1.443 0 2.824-0.549 3.872-1.507 0.191 0.912 0.592 1.769 1.171 2.503 0.261-0.080 0.504-0.16 0.737-0.267 0.077-0.035 0.157-0.073 0.237-0.115-0.803-0.901-1.264-2.067-1.28-3.284-0.003-0.213-0.143-0.4-0.347-0.467s-0.427 0.009-0.552 0.181c-0.891 1.227-2.327 1.96-3.84 1.96-1.331 0-2.609-0.565-3.507-1.552-0.151-0.165-0.392-0.209-0.591-0.109s-0.307 0.32-0.264 0.54l0.016 0.073v0.004c1.177 5.091 4.983 9.312 9.928 11.013 1.12 0.387 2.293 0.644 3.484 0.76l0.049 0.003c0.123 0 0.24-0.045 0.333-0.128 0.104-0.093 0.163-0.227 0.163-0.368v-2.647c0-1.253 0.253-2.467 0.76-3.604 0.349-0.784 0.809-1.509 1.369-2.16l-0.543-0.323 0.651 0.196 3.337 0.952c0.176 0.080 0.356 0.153 0.539 0.221v-1.067c-0.84-0.371-1.568-0.912-2.12-1.591v-5.427h0.2v1.347c0 0.977 0.793 1.773 1.771 1.773h0.709c0.92 0 1.677-0.707 1.764-1.603 0.005-0.027 0.009-0.056 0.009-0.085 0-0.24 0.193-0.432 0.432-0.432s0.432 0.193 0.432 0.432c0 0.029 0.004 0.057 0.008 0.085 0.085 0.899 0.844 1.604 1.764 1.604h0.711c0.977 0 1.773-0.795 1.773-1.773v-1.347h0.195v5.429c-0.552 0.677-1.28 1.219-2.12 1.589v1.067c0.184-0.067 0.364-0.141 0.539-0.223l3.336-0.953 0.007 0.008 0.673-0.2-0.56 0.331c0.487 0.571 0.899 1.196 1.227 1.867 0.084 0.173 0.257 0.28 0.447 0.28h0.029c0.2-0.013 0.373-0.144 0.44-0.333 0.137-0.396 0.207-0.813 0.207-1.244 0-1.92-1.387-3.499-3.232-3.787v-3.829c0.275 0 0.496-0.223 0.496-0.496s-0.221-0.493-0.496-0.493v-1.067c0-0.353-0.033-0.701-0.093-1.040-0.003-0.008 0-0.016-0.003-0.024l-0.019-0.1-0.007-0.032c-0.229-1.116-0.776-2.133-1.587-2.947-0.357-0.36-0.76-0.672-1.191-0.924-0.044-0.027-0.089-0.048-0.133-0.073l-0.080-0.044c-0.069-0.036-0.137-0.072-0.205-0.104-0.024-0.013-0.048-0.021-0.072-0.033-0.117-0.056-0.236-0.107-0.355-0.152-0.048-0.019-0.093-0.037-0.144-0.053-0.053-0.021-0.109-0.040-0.164-0.057-0.059-0.019-0.12-0.037-0.179-0.053-0.049-0.016-0.099-0.029-0.147-0.043-0.104-0.027-0.208-0.053-0.315-0.073-0.033-0.007-0.067-0.013-0.1-0.017-0.080-0.013-0.163-0.029-0.244-0.040-0.047-0.008-0.093-0.013-0.143-0.020l-0.209-0.021-0.147-0.011c-0.080-0.005-0.163-0.007-0.244-0.008l-0.096-0.004zM27.080 6.48s-0.101 0.103-0.285 0.28c-0.091 0.089-0.208 0.191-0.339 0.309-0.131 0.12-0.285 0.247-0.453 0.387-0.12 0.093-0.253 0.193-0.387 0.293 0.48 0.964 1.26 1.591 2.136 1.699 0.016 0.16 0.024 0.324 0.024 0.488v1.064h-3.487c-0.061-0.204-0.248-0.355-0.473-0.355h-1.843c-0.224 0-0.413 0.151-0.473 0.355h-3.487v-1.064c0-0.531 0.085-1.040 0.243-1.52 0.156 0.149 0.324 0.283 0.504 0.4 0.053 0.027 0.16 0.084 0.323 0.155 0.231 0.103 0.573 0.216 0.995 0.28 0.211 0.032 0.44 0.049 0.685 0.051 0.060 0 0.125 0 0.181-0.004l0.193-0.013c0.133-0.004 0.257-0.027 0.387-0.040s0.267-0.047 0.4-0.069c0.133-0.027 0.267-0.064 0.403-0.093 0.133-0.040 0.269-0.080 0.404-0.123 0.133-0.048 0.269-0.093 0.4-0.144 0.267-0.101 0.531-0.213 0.784-0.336l0.373-0.187 0.363-0.193c0.233-0.133 0.459-0.264 0.667-0.396 0.107-0.063 0.207-0.133 0.307-0.195s0.192-0.123 0.28-0.187c0.176-0.124 0.344-0.231 0.485-0.336 0.143-0.104 0.271-0.191 0.369-0.269 0.2-0.153 0.32-0.237 0.32-0.237zM22.467 11.64h0.853v0.283h-0.853v-0.283zM19.2 11.993h2.267v1.347c0 0.431-0.349 0.78-0.779 0.78h-0.709c-0.431 0-0.78-0.349-0.78-0.78v-1.347zM24.32 11.993h2.267v1.347c0 0.431-0.349 0.78-0.78 0.78h-0.709c-0.431 0-0.78-0.349-0.78-0.78v-1.347zM20.333 12.207c-0.312 0-0.565 0.253-0.565 0.565s0.253 0.565 0.567 0.565 0.568-0.253 0.568-0.567c0-0.093-0.024-0.176-0.061-0.253-0.053 0.067-0.133 0.111-0.221 0.111-0.156 0-0.284-0.127-0.284-0.284 0-0.051 0.016-0.097 0.040-0.137l-0.040-0.004zM25.453 12.207c-0.312 0-0.567 0.253-0.567 0.565s0.253 0.565 0.567 0.565 0.567-0.253 0.567-0.567c0-0.093-0.023-0.176-0.061-0.253-0.053 0.067-0.133 0.111-0.224 0.111-0.156 0-0.284-0.127-0.284-0.284 0-0.051 0.013-0.097 0.036-0.137-0.013 0-0.027-0.004-0.037-0.004zM20.872 18.015c-0.088 0.008-0.173 0.040-0.248 0.091-0.133 0.093-0.211 0.244-0.211 0.405v2.693c0 0.16 0.080 0.313 0.211 0.405 0.085 0.060 0.187 0.091 0.287 0.091 0.056 0 0.112-0.009 0.167-0.029l1.819-0.649 1.819 0.649c0.053 0.020 0.111 0.029 0.167 0.029 0.103 0 0.203-0.031 0.288-0.091 0.133-0.093 0.211-0.244 0.211-0.405v-2.693c0-0.16-0.080-0.313-0.211-0.405s-0.3-0.116-0.453-0.061l-1.817 0.649-1.817-0.651c-0.040-0.013-0.077-0.023-0.116-0.027-0.029-0.003-0.059-0.004-0.088 0zM21.405 19.215l0.992 0.355v0.576l-0.992 0.355v-1.285zM24.383 19.215v1.285l-0.992-0.355v-0.576l0.992-0.355z"></path>
</symbol>
<symbol id="icon-tesla" viewBox="0 0 32 32">
<title>tesla</title>
<path fill="#c00" style="fill: var(--color1, #c00)" d="M16 7.149l3.3-4.035s5.66 0.12 11.295 2.739c-1.443 2.181-4.308 3.251-4.308 3.251-0.195-1.919-1.539-2.387-5.805-2.387l-4.481 25.283-4.508-25.288c-4.24 0-5.584 0.472-5.78 2.389 0 0-2.861-1.060-4.305-3.24 5.633-2.62 11.293-2.741 11.293-2.741l3.3 4.029-0.005 0.003h0.005v-0.003zM16 1.951c4.553-0.040 9.768 0.704 15.104 3.040 0.713-1.291 0.896-1.86 0.896-1.86-5.833-2.315-11.296-3.111-16-3.131-4.704 0.020-10.167 0.813-16 3.132 0 0 0.26 0.7 0.896 1.861 5.336-2.341 10.551-3.080 15.104-3.047v0.004z"></path>
</symbol>
<symbol id="icon-facebook" viewBox="0 0 32 32">
<title>facebook</title>
<path d="M19 6h5v-6h-5c-3.86 0-7 3.14-7 7v3h-4v6h4v16h6v-16h5l1-6h-6v-3c0-0.542 0.458-1 1-1z"></path>
</symbol>
<symbol id="icon-apple" viewBox="0 0 32 32">
<title>apple</title>
<path d="M24.734 17.003c-0.040-4.053 3.305-5.996 3.454-6.093-1.88-2.751-4.808-3.127-5.851-3.171-2.492-0.252-4.862 1.467-6.127 1.467-1.261 0-3.213-1.43-5.28-1.392-2.716 0.040-5.221 1.579-6.619 4.012-2.822 4.897-0.723 12.151 2.028 16.123 1.344 1.944 2.947 4.127 5.051 4.049 2.026-0.081 2.793-1.311 5.242-1.311s3.138 1.311 5.283 1.271c2.18-0.041 3.562-1.981 4.897-3.931 1.543-2.255 2.179-4.439 2.216-4.551-0.048-0.022-4.252-1.632-4.294-6.473zM20.705 5.11c1.117-1.355 1.871-3.235 1.665-5.11-1.609 0.066-3.559 1.072-4.713 2.423-1.036 1.199-1.942 3.113-1.699 4.951 1.796 0.14 3.629-0.913 4.747-2.264z"></path>
</symbol>
</defs>
</svg>
