<svg aria-hidden="true" style="position: absolute; width: 0; height: 0; overflow: hidden;" version="1.1" xmlns="http://www.w3.org/2000/svg" xmlns:xlink="http://www.w3.org/1999/xlink">
<defs>
<symbol id="icon-kids" viewBox="0 0 54 32">
<title>kids</title>
<path fill="#fff" style="fill: var(--color1, #fff)" d="M23.144 24.2c0.263-0.656 0.526-1.31 0.784-1.953 0.123 0.075 0.255 0.125 0.338 0.22 0.063 0.073 0.098 0.21 0.080 0.308-0.105 0.531-0.228 1.057-0.351 1.582-0.043 0.18-0.18 0.298-0.328 0.308-0.055-0.378-0.060-0.381-0.523-0.466z"></path>
<path fill="#82acf8" style="fill: var(--color2, #82acf8)" d="M11.485 16.556c0.008-0.133 0.015-0.265 0.020-0.398 0.005-0.1-0.035-0.155-0.143-0.16-0.593-0.020-1.004-0.341-1.315-0.814-0.14-0.215-0.233-0.451-0.27-0.709-0.008-0.045-0.065-0.108-0.105-0.113s-0.113 0.048-0.125 0.088c-0.11 0.368-0.368 0.611-0.681 0.801-0.401 0.24-0.834 0.356-1.305 0.298-0.228-0.028-0.418-0.133-0.596-0.273-0.033-0.025-0.068-0.063-0.103-0.063-0.043 0-0.118 0.025-0.123 0.050-0.010 0.053-0.003 0.138 0.033 0.163 0.155 0.11 0.318 0.213 0.488 0.298 0.083 0.043 0.12 0.080 0.118 0.173-0.020 0.664-0.235 1.257-0.654 1.773-0.050 0.060-0.113 0.11-0.173 0.163-0.068 0.058-0.080 0.12-0.038 0.2 0.333 0.616 0.361 1.272 0.235 1.946-0.013 0.063-0.053 0.138-0.1 0.178-0.363 0.288-0.669 0.628-0.919 1.017-0.013 0.018-0.023 0.035-0.038 0.050-0.008 0.010-0.020 0.015-0.038 0.030-0.195-0.2-0.338-0.431-0.436-0.691-0.263-0.694-0.108-1.302 0.398-1.83 0.098-0.103 0.203-0.198 0.308-0.293 0.063-0.055 0.105-0.118 0.048-0.193s-0.133-0.055-0.198 0c-0.14 0.118-0.275 0.238-0.423 0.361-0.218-0.208-0.343-0.476-0.418-0.761-0.21-0.806-0.070-1.537 0.488-2.171 0.080-0.090 0.178-0.165 0.273-0.235 0.078-0.058 0.1-0.118 0.083-0.215-0.115-0.611-0.015-1.187 0.356-1.688 0.408-0.553 0.959-0.904 1.643-1.037 0.709-0.138 1.34 0.045 1.9 0.483 0.213 0.165 0.386 0.371 0.456 0.641 0.025 0.095 0.1 0.108 0.183 0.12 0.195 0.033 0.401 0.053 0.586 0.118 0.586 0.203 0.871 0.649 0.924 1.247 0.043 0.498-0.060 0.972-0.29 1.415-0.008 0.015-0.018 0.028-0.028 0.040-0.008-0.003-0.015-0.005-0.023-0.008z"></path>
<path fill="#fff" style="fill: var(--color1, #fff)" d="M28.377 27.303c-0.433 0.005-0.761 0.255-1.134 0.483 0.013-0.148 0.023-0.27 0.038-0.393 0.048-0.396 0.098-0.791 0.145-1.189 0.008-0.070 0.035-0.090 0.103-0.090 0.208 0.003 0.416-0.005 0.623 0.003 0.038 0 0.1 0.040 0.103 0.068 0.048 0.353 0.088 0.709 0.13 1.064 0.003 0.010-0.003 0.023-0.008 0.055z"></path>
<path fill="#fedcb9" style="fill: var(--color3, #fedcb9)" d="M7.589 16.366c0.015-0.183 0.030-0.356 0.045-0.541 0.386 0.008 0.754-0.068 1.104-0.228 0.348-0.158 0.643-0.383 0.884-0.714 0.025 0.055 0.043 0.093 0.063 0.13 0.285 0.596 0.704 1.042 1.375 1.192 0.213 0.048 0.208 0.048 0.188 0.27-0.025 0.29-0.033 0.583-0.063 0.874-0.113 1.099-1.047 2.033-2.146 2.158-0.721 0.083-1.362-0.105-1.921-0.566-0.048-0.040-0.080-0.113-0.1-0.175-0.078-0.24-0.148-0.483-0.218-0.729-0.010-0.035-0.005-0.093 0.018-0.115 0.323-0.331 0.528-0.726 0.661-1.164 0.023-0.078 0.063-0.11 0.135-0.14 0.223-0.090 0.446-0.095 0.671-0.018 0.078 0.028 0.153 0.040 0.19-0.053 0.040-0.103-0.038-0.143-0.118-0.17-0.21-0.075-0.423-0.080-0.641-0.040-0.038 0.010-0.078 0.018-0.128 0.028zM8.463 18.098c-0.045 0.346 0.238 0.654 0.593 0.674 0.328 0.020 0.646-0.265 0.643-0.591-0.411-0.028-0.819-0.055-1.237-0.083zM7.955 16.904c-0.103 0.005-0.203 0.060-0.285 0.158-0.035 0.040-0.083 0.073-0.133 0.090-0.085 0.033-0.123 0.108-0.070 0.163 0.048 0.050 0.145 0.068 0.223 0.073 0.043 0.003 0.11-0.045 0.128-0.088 0.035-0.088 0.070-0.165 0.18-0.155 0.105 0.008 0.13 0.085 0.14 0.175 0.008 0.075 0.053 0.14 0.128 0.118 0.045-0.015 0.098-0.090 0.103-0.143 0.013-0.208-0.175-0.388-0.413-0.391zM10.354 17.059c-0.203 0-0.396 0.168-0.396 0.353 0 0.050 0.040 0.123 0.083 0.14 0.070 0.030 0.123-0.023 0.14-0.1 0.020-0.088 0.063-0.16 0.165-0.158 0.108 0.003 0.138 0.083 0.165 0.173 0.013 0.045 0.068 0.1 0.108 0.105 0.073 0.010 0.165 0.008 0.218-0.033 0.068-0.050 0.035-0.123-0.038-0.173-0.045-0.030-0.088-0.070-0.118-0.113-0.080-0.12-0.195-0.183-0.328-0.195zM10.251 16.466c-0.078 0.008-0.158 0.013-0.235 0.025-0.083 0.015-0.163 0.045-0.138 0.153 0.023 0.103 0.108 0.090 0.183 0.075 0.235-0.050 0.456-0.008 0.661 0.11 0.068 0.038 0.14 0.055 0.185-0.023 0.050-0.083 0-0.14-0.073-0.183-0.178-0.103-0.373-0.155-0.583-0.158z"></path>
<path fill="#e0a175" style="fill: var(--color4, #e0a175)" d="M13.919 9.567c-0.025-0.318 0.023-0.643 0.175-0.949 0.333-0.674 0.899-1.064 1.61-1.244 0.766-0.195 1.5-0.103 2.171 0.341 0.155 0.103 0.293 0.233 0.428 0.363 0.073 0.070 0.135 0.090 0.233 0.073 0.581-0.108 0.959 0.11 1.159 0.669 0.028 0.075 0.053 0.15 0.068 0.228 0.11 0.491 0.108 0.987 0.058 1.48-0.035 0.361-0.103 0.716-0.158 1.074-0.005 0.038-0.018 0.073-0.033 0.133-0.025-0.050-0.045-0.078-0.058-0.11-0.138-0.363-0.273-0.726-0.408-1.089-0.070-0.19-0.088-0.195-0.283-0.16-0.508 0.095-0.982 0.020-1.397-0.3-0.313-0.24-0.436-0.578-0.466-0.959-0.008-0.103-0.005-0.208-0.003-0.313 0.003-0.093-0.015-0.175-0.128-0.175-0.103-0.002-0.128 0.075-0.13 0.163-0.013 0.265 0 0.528 0.090 0.779 0.045 0.128 0.038 0.245-0.003 0.366-0.163 0.508-0.523 0.821-1.004 1.012-0.393 0.155-0.801 0.183-1.217 0.105-0.19-0.035-0.23-0.008-0.248 0.183-0.035 0.398-0.068 0.796-0.123 1.202-0.158-0.313-0.333-0.621-0.471-0.944-0.115-0.265-0.215-0.543-0.275-0.826-0.115-0.533 0.3-0.914 0.834-0.789 0.073 0.018 0.138 0.013 0.165-0.065 0.030-0.085-0.002-0.16-0.090-0.175-0.158-0.035-0.318-0.045-0.498-0.068z"></path>
<path fill="#fedcb9" style="fill: var(--color3, #fedcb9)" d="M14.618 11.3c1.094 0.1 1.978-0.195 2.466-1.267 0.003 0.002 0.018 0.002 0.025 0.013 0.468 0.528 1.067 0.661 1.738 0.578 0.073-0.010 0.103 0.010 0.128 0.078 0.173 0.468 0.353 0.936 0.526 1.405 0.020 0.053 0.025 0.115 0.013 0.17-0.148 0.696-0.513 1.247-1.089 1.665-0.095 0.070-0.153 0.058-0.225-0.028-0.133-0.155-0.278-0.3-0.418-0.448-0.155-0.163-0.356-0.185-0.501-0.053-0.15 0.135-0.148 0.338 0.010 0.511 0.075 0.083 0.15 0.165 0.215 0.235-0.13 0.278-0.373 0.265-0.603 0.258-1.059-0.035-1.853-0.513-2.366-1.442-0.028-0.048-0.045-0.11-0.043-0.165 0.035-0.471 0.075-0.939 0.113-1.41 0-0.033 0.008-0.065 0.013-0.1zM18.033 12.414c-0.323 0.025-0.558 0.135-0.744 0.346-0.050 0.058-0.068 0.13 0.003 0.17 0.040 0.023 0.13 0.018 0.16-0.013 0.153-0.163 0.341-0.248 0.558-0.27 0.083-0.008 0.145-0.050 0.12-0.135-0.010-0.048-0.078-0.080-0.098-0.098zM15.787 12.52c0.138 0 0.245-0.108 0.248-0.243 0.003-0.14-0.11-0.255-0.25-0.253-0.138 0.002-0.243 0.108-0.245 0.245-0.002 0.143 0.103 0.25 0.248 0.25zM18.123 11.671c-0.143-0.002-0.255 0.105-0.255 0.248 0 0.138 0.105 0.245 0.243 0.248 0.143 0.002 0.255-0.105 0.253-0.248 0-0.14-0.103-0.248-0.24-0.248z"></path>
<path fill="#d09269" style="fill: var(--color5, #d09269)" d="M14.272 12.432l0.133-1.347c0 0 1.164 0.013 1.961-1.234 0.203-0.318 0.436-1.187 0.436-1.187l0.088-0.013 0.045 0.033c0.025 0.12 0.361 1.074 0.796 1.477 0.305 0.283 1.157 0.268 1.297 0.17 0.013-0.008 0.090 0.030 0.095 0.045l0.501 1.365c0 0 0.358-1.715 0.22-2.254-0.27-1.057-1.56-0.771-1.815-0.751 0 0-0.333-0.746-1.234-0.972-0.436-0.11-1.598-0.283-2.216 0.188-0.701 0.531-0.661 1.613-0.661 1.613s0.466 0.050 0.561 0.165c0.050 0.063 0.025 0.163-0.033 0.145-0.639-0.208-0.896 0.27-0.926 0.325-0.278 0.501 0.726 2.178 0.726 2.178z"></path>
<path fill="#fef0a7" style="fill: var(--color6, #fef0a7)" d="M48.586 19.205c-0.26-0.008-0.496-0.073-0.719-0.18-0.759-0.361-1.182-1.132-1.104-1.988 0.045-0.478 0.083-0.954 0.115-1.432 0.005-0.088 0.043-0.115 0.118-0.145 0.228-0.090 0.453-0.19 0.676-0.288 0.080-0.035 0.12-0.1 0.073-0.18-0.048-0.078-0.115-0.058-0.185-0.020-0.393 0.215-0.801 0.371-1.259 0.358-0.353-0.010-0.661-0.12-0.896-0.398-0.085-0.103-0.14-0.095-0.24 0.020-0.443 0.513-0.977 0.891-1.633 1.087-0.305 0.090-0.618 0.128-0.939 0.12-0.085-0.003-0.123-0.030-0.145-0.113-0.155-0.543-0.125-1.082 0.055-1.61 0.24-0.711 0.669-1.284 1.307-1.688 0.894-0.566 1.943-0.511 2.804 0.15 0.235 0.18 0.451 0.333 0.781 0.338 0.383 0.005 0.656 0.26 0.844 0.591 0.24 0.423 0.323 0.891 0.381 1.365 0.108 0.906 0.028 1.815 0.013 2.724-0.008 0.376-0.020 0.751-0.033 1.127-0.005 0.048-0.010 0.1-0.013 0.163zM45.133 12.672c-0.055 0-0.115-0.015-0.16 0.005-0.048 0.020-0.080 0.073-0.12 0.113 0.038 0.035 0.073 0.080 0.115 0.105 0.033 0.018 0.083 0.005 0.123 0.005 0.341 0.002 0.651 0.085 0.916 0.31 0.060 0.053 0.128 0.095 0.195 0.015 0.070-0.085 0.015-0.143-0.053-0.198-0.295-0.245-0.636-0.358-1.017-0.356z"></path>
<path fill="#d2dce6" style="fill: var(--color7, #d2dce6)" d="M23.927 22.172l0.466 0.356-0.035 0.726-0.759-0.351 0.328-0.731z"></path>
<path fill="#fff" style="fill: var(--color1, #fff)" d="M27.082 23.717c0 0.311 0.003 0.611-0.003 0.911 0 0.025-0.040 0.070-0.060 0.070-0.403 0.005-0.806 0.003-1.217 0.003 0-0.333 0-0.654 0-0.984 0.421 0 0.839 0 1.279 0z"></path>
<path fill="#d2dce6" style="fill: var(--color7, #d2dce6)" d="M25.808 24.356l1.264-0.2 0.008-0.443h-1.272v0.643z"></path>
<path fill="#467eda" style="fill: var(--color8, #467eda)" d="M5.383 15.675c0.083 0.045-0.363 0.553-0.25 1.214 0.115 0.681 0.714 0.894 0.613 1.377-0.050 0.24-0.26 0.481-0.451 0.476-0.391-0.013-0.859-1.064-0.651-1.966 0.155-0.671 0.656-1.147 0.739-1.102z"></path>
<path fill="#467eda" style="fill: var(--color8, #467eda)" d="M7.962 12.307c-0.338-0.283-2.812 1.695-2.216 1.753 0.268 0.025 0.213-0.351 1.322-0.238 0.030-1.172 1.027-1.402 0.894-1.515z"></path>
<path fill="#d0bfb5" style="fill: var(--color9, #d0bfb5)" d="M7.174 17.345c0 0 0.356-0.298 0.468-0.526 0.178-0.363 0.218-0.751 0.218-0.751s0.696-0.11 0.901-0.168c0.358-0.1 0.844-0.576 0.844-0.576s0.468 0.959 1.628 0.909c0.050-0.003-0.483-0.238-0.901-0.608-0.408-0.363-0.701-0.859-0.701-0.859s-0.769 0.588-1.052 0.719c-0.233 0.105-1.009 0.225-1.009 0.225l-0.396 1.635z"></path>
<path fill="#d0c0b0" style="fill: var(--color10, #d0c0b0)" d="M14.448 12.858l0.401-1.415c0 0 0.814 0.038 1.177-0.1 0.626-0.238 1.164-0.901 1.164-0.901s0.428 0.31 0.613 0.363c0.438 0.125 1.002 0.050 1.002 0.050l0.776 1.302-0.513-1.773c0 0-0.659 0.098-0.926 0.058-0.275-0.040-1.077-0.613-1.077-0.613s-0.613 0.804-0.869 0.982c-0.235 0.163-1.097 0.383-1.097 0.383h-0.501l-0.15 1.665z"></path>
<path fill="#dc926d" style="fill: var(--color11, #dc926d)" d="M35.505 12.041c0.043 0.185 0.088 0.358 0.125 0.533 0.055 0.263 0.178 0.473 0.428 0.596 0.073 0.035 0.123 0.145 0.225 0.078 0.1-0.065 0.048-0.163 0.043-0.25-0.023-0.316 0.030-0.621 0.133-0.916 0.273 0.020 0.518 0.24 0.581 0.518 0.068 0.305-0.073 0.621-0.351 0.759-0.090 0.045-0.195 0.065-0.298 0.083-0.105 0.018-0.16 0.060-0.143 0.173 0.005 0.033 0 0.075-0.015 0.105-0.506 1.029-1.32 1.633-2.469 1.758-1.5 0.163-2.895-0.851-3.235-2.324-0.068-0.29-0.015-0.578 0.075-0.851 0.11-0.331 0.26-0.646 0.398-0.969 0.045-0.108 0.115-0.15 0.245-0.113 0.361 0.105 0.691 0.028 0.987-0.208 0.020-0.015 0.040-0.028 0.070-0.050 0.050 0.080 0.093 0.163 0.148 0.233 0.133 0.165 0.275 0.323 0.411 0.486 0.145 0.178 0.24 0.378 0.25 0.613 0.002 0.088 0.040 0.158 0.143 0.148 0.098-0.010 0.118-0.083 0.11-0.165-0.010-0.1-0.023-0.198-0.040-0.325 0.716 0.313 1.44 0.25 2.178 0.090zM32.263 12.439c-0.020-0.020-0.048-0.068-0.090-0.093-0.383-0.21-0.779-0.22-1.177-0.050-0.073 0.030-0.12 0.085-0.090 0.168 0.033 0.085 0.1 0.098 0.185 0.068 0.098-0.033 0.198-0.068 0.3-0.083 0.233-0.035 0.456 0.005 0.664 0.118 0.11 0.060 0.208 0.008 0.208-0.128zM34.319 12.212c-0.168 0.043-0.338 0.083-0.503 0.13-0.088 0.025-0.158 0.080-0.115 0.183 0.040 0.095 0.12 0.088 0.2 0.053 0.321-0.13 0.633-0.115 0.941 0.043 0.073 0.038 0.148 0.053 0.195-0.033 0.050-0.090 0-0.148-0.078-0.193-0.195-0.108-0.408-0.155-0.641-0.183zM32.959 14.13c0.188-0.048 0.353-0.088 0.516-0.135 0.078-0.023 0.135-0.078 0.1-0.17-0.035-0.090-0.105-0.095-0.185-0.068-0.020 0.008-0.040 0.015-0.060 0.020-0.23 0.080-0.461 0.11-0.689-0.015-0.070-0.038-0.14-0.033-0.183 0.045s-0.008 0.148 0.065 0.175c0.145 0.060 0.295 0.103 0.436 0.148zM34.329 13.323c0.16-0.002 0.285-0.128 0.288-0.283 0.002-0.158-0.138-0.295-0.295-0.293-0.163 0.002-0.288 0.135-0.285 0.3 0.005 0.158 0.133 0.278 0.293 0.275zM31.256 13.035c-0.003 0.158 0.12 0.285 0.28 0.29 0.165 0.005 0.298-0.123 0.298-0.285 0-0.155-0.128-0.288-0.283-0.293-0.155-0.008-0.293 0.125-0.295 0.288z"></path>
<path fill="#b58473" style="fill: var(--color12, #b58473)" d="M30.956 11.11c0.005 0.208 0.906 0.921 1.452 0.601 0.23-0.135 0.576 0.481 0.814 0.506 0.851 0.083 2.198-0.406 2.291-0.255-0.864 0.674-3.090-0.754-3.092-1.044 0-0.050-1.332 0.426-1.465 0.193z"></path>
<path fill="#d2d0a0" style="fill: var(--color13, #d2d0a0)" d="M47.775 13.176c0 0.16 0.401 0.426 0.401 0.426s0.433 0.871 0.458 1.134c0.043 0.436 0.058 1.703 0.058 1.703l-0.090 2.842c0 0-0.523 0.003-0.613-0.125-0.646-0.931 0.583-3.701 0.388-4.52-0.080-0.338-0.601-1.252-0.601-1.252z"></path>
<path fill="#fff" style="fill: var(--color1, #fff)" d="M24.17 27.683c-0.253-0.356-0.433-0.736-0.841-0.921 0.025-0.048 0.045-0.088 0.068-0.125 0.165-0.27 0.328-0.541 0.498-0.809 0.020-0.030 0.085-0.068 0.11-0.055 0.225 0.095 0.448 0.198 0.681 0.305-0.17 0.533-0.338 1.057-0.516 1.605z"></path>
<path fill="#d5ddea" style="fill: var(--color14, #d5ddea)" d="M23.962 25.703l0.213 0.113-0.501 1.177-0.413-0.263z"></path>
<path fill="#d5ddea" style="fill: var(--color14, #d5ddea)" d="M27.398 26.096l0.258-0.018-0.083 1.577-0.356 0.175z"></path>
<path fill="#1b4f7f" style="fill: var(--color15, #1b4f7f)" d="M27.363 24.065c0.148 0 0.288 0 0.428 0 0.275 0 0.453 0.173 0.458 0.448 0.005 0.18-0.035 0.178 0.185 0.178 0.458 0 0.919-0.003 1.377 0.003 0.108 0 0.145-0.030 0.15-0.138 0.055-0.924 0.115-1.848 0.178-2.769 0.055-0.799 0.108-1.598 0.178-2.394 0.040-0.468 0.073-0.944 0.178-1.397 0.2-0.856 0.689-1.51 1.51-1.878 0.090-0.040 0.188-0.068 0.283-0.1 0.023-0.008 0.068-0.013 0.068-0.023 0.018-0.125 0.033-0.25 0.033-0.376 0-0.033-0.053-0.078-0.093-0.093-0.341-0.135-0.651-0.318-0.931-0.556-0.463-0.393-0.794-0.874-0.992-1.447-0.020-0.060-0.073-0.123-0.125-0.153-0.626-0.343-0.686-1.167-0.115-1.595 0.050-0.038 0.085-0.12 0.095-0.185 0.205-1.327 0.904-2.276 2.166-2.754 1.277-0.486 2.724-0.040 3.601 1.062 0.443 0.558 0.694 1.189 0.746 1.903 0.002 0.053 0.043 0.118 0.088 0.145 0.356 0.225 0.516 0.548 0.453 0.957-0.058 0.391-0.3 0.639-0.679 0.756-0.050 0.015-0.105 0.065-0.128 0.115-0.386 0.851-1.017 1.445-1.89 1.773-0.083 0.030-0.113 0.070-0.105 0.153 0.008 0.065 0.002 0.133 0.002 0.2 0 0.013 0.005 0.025 0.010 0.043 0.16 0.035 0.323 0.063 0.481 0.108 0.804 0.228 1.377 0.724 1.72 1.485 0.316 0.699 0.639 1.392 0.851 2.131 0.070 0.243 0.128 0.493 0.15 0.744 0.015 0.168-0.028 0.348-0.078 0.513-0.168 0.541-0.461 1.024-0.754 1.505-0.153 0.248-0.313 0.491-0.478 0.746 0.155 0.105 0.285 0.245 0.506 0.225 0.16-0.015 0.325 0.013 0.486 0.023 0.235 0.015 0.393 0.18 0.386 0.406-0.008 0.215-0.175 0.366-0.411 0.361-0.145-0.003-0.29-0.015-0.453 0.003 0.068 0.055 0.14 0.105 0.198 0.17 0.080 0.088 0.148 0.185 0.225 0.275 0.020 0.025 0.053 0.045 0.083 0.055 0.025 0.010 0.058 0.003 0.088 0.003 1.983 0 3.964 0 5.947 0.003 0.123 0 0.175-0.030 0.19-0.158 0.033-0.255 0.158-0.471 0.328-0.661 0.040-0.045 0.068-0.113 0.073-0.173 0.010-0.175 0.002-0.351 0.002-0.541-0.035 0.023-0.073 0.043-0.105 0.068-0.245 0.165-0.493 0.326-0.736 0.498-0.553 0.391-1.144 0.466-1.78 0.245-0.228-0.078-0.461-0.145-0.686-0.23-0.13-0.050-0.253-0.063-0.388-0.030-0.263 0.060-0.528 0.11-0.794 0.168-0.108 0.023-0.168-0.018-0.19-0.123-0.028-0.138-0.058-0.275-0.088-0.416-0.068 0.005-0.125 0.020-0.183 0.013-0.215-0.020-0.361-0.213-0.316-0.426 0.018-0.085 0.002-0.135-0.050-0.198-0.073-0.088-0.088-0.193-0.060-0.308 0.010-0.040 0-0.1-0.025-0.13-0.090-0.105-0.103-0.223-0.083-0.353 0.005-0.040 0.002-0.093-0.020-0.12-0.193-0.26-0.11-0.513 0.205-0.606 0.023-0.008 0.045-0.020 0.078-0.033-0.045-0.215-0.088-0.426-0.133-0.636-0.035-0.17-0.015-0.205 0.153-0.243 0.223-0.050 0.446-0.098 0.684-0.148-0.018-0.048-0.030-0.085-0.048-0.12-0.068-0.14-0.14-0.275-0.2-0.418-0.035-0.085-0.085-0.113-0.178-0.113-0.22 0.003-0.416-0.16-0.463-0.368-0.053-0.225 0.055-0.458 0.26-0.556 0.2-0.098 0.448-0.048 0.591 0.123 0.143 0.168 0.16 0.426 0.018 0.601-0.070 0.085-0.060 0.145-0.015 0.23 0.085 0.158 0.16 0.32 0.235 0.483 0.033 0.073 0.073 0.085 0.148 0.070 0.325-0.070 0.651-0.133 0.977-0.2 0.135-0.028 0.175-0.003 0.203 0.128 0.143 0.671 0.285 1.345 0.421 2.016 0.020 0.1 0.063 0.15 0.158 0.18 0.238 0.075 0.463 0.058 0.639-0.128 0.396-0.418 0.791-0.836 1.164-1.274 0.356-0.416 0.686-0.851 1.122-1.189 0.098-0.078 0.198-0.155 0.303-0.223 0.115-0.073 0.033-0.168 0.030-0.25 0-0.033-0.055-0.073-0.093-0.090-0.080-0.035-0.165-0.055-0.275-0.090 0 0.153-0.002 0.293 0 0.431 0.002 0.115-0.058 0.153-0.163 0.153-0.894-0.015-1.703-0.616-1.966-1.48-0.060-0.2-0.080-0.416-0.1-0.626-0.015-0.158-0.010-0.318-0.002-0.476 0.020-0.393-0.043-0.774-0.12-1.162-0.14-0.679 0.008-1.327 0.323-1.936 0.391-0.754 0.969-1.315 1.783-1.595 0.911-0.316 1.743-0.113 2.496 0.453 0.193 0.143 0.368 0.258 0.626 0.275 0.528 0.038 0.881 0.361 1.109 0.824 0.19 0.386 0.275 0.801 0.333 1.224 0.113 0.824 0.060 1.648 0.038 2.474-0.015 0.531-0.025 1.059-0.040 1.59 0 0.043-0.002 0.083-0.005 0.125-0.010 0.203-0.035 0.228-0.233 0.213-0.558-0.038-1.042-0.248-1.437-0.646-0.033-0.033-0.055-0.075-0.070-0.098-0.115 0.025-0.123 0.075-0.125 0.153-0.005 0.238 0.1 0.343 0.333 0.413 0.661 0.193 1.112 0.666 1.497 1.212 0.416 0.583 0.648 1.247 0.814 1.936 0.090 0.381 0.168 0.764 0.228 1.149 0.060 0.378 0.053 0.756-0.168 1.124 0.070 0 0.118 0 0.165 0 0.851 0 1.703 0 2.554 0 0.178 0 0.205 0.028 0.205 0.2 0 0.188 0 0.376 0 0.563 0 0.153-0.030 0.185-0.18 0.188-0.363 0.003-0.726 0.005-1.089 0-0.095-0.003-0.143 0.030-0.175 0.118-0.078 0.21-0.17 0.416-0.25 0.626-0.028 0.075-0.065 0.11-0.145 0.1-0.033-0.005-0.068 0-0.1 0-7.306 0-14.615 0-21.922 0-0.063 0-0.123 0-0.203 0 0.023 0.19 0.043 0.366 0.063 0.543 0.003 0.025 0.013 0.050 0.010 0.075-0.010 0.15 0.050 0.235 0.193 0.303 0.22 0.108 0.328 0.313 0.358 0.553 0.015 0.118-0.033 0.175-0.155 0.175-0.621 0.003-1.244 0.005-1.865 0.003-0.125 0-0.163-0.043-0.148-0.173 0.053-0.456 0.108-0.911 0.163-1.365 0.005-0.033 0.008-0.065 0.010-0.115-0.053 0-0.098 0-0.143 0-0.696 0-1.395 0.003-2.091-0.003-0.095 0-0.138 0.028-0.168 0.12-0.135 0.441-0.278 0.881-0.418 1.322-0.048 0.148-0.098 0.175-0.238 0.11-0.553-0.253-1.104-0.508-1.658-0.764-0.135-0.063-0.15-0.115-0.073-0.243 0.135-0.225 0.341-0.336 0.598-0.353 0.16-0.010 0.165-0.010 0.225-0.19-0.078 0-0.15 0-0.225 0-6.723 0-13.446 0-20.169 0.005-0.148 0-0.225-0.033-0.27-0.178-0.063-0.193-0.155-0.378-0.228-0.568-0.028-0.078-0.070-0.1-0.148-0.098-0.383 0.003-0.769 0.003-1.152 0-0.178 0-0.21-0.035-0.21-0.213 0-0.17 0-0.343 0-0.513 0-0.2 0.025-0.225 0.22-0.225 1.257 0 2.511 0 3.768 0 0.053 0 0.105 0 0.17 0 0.005-0.093 0.010-0.173 0.013-0.25 0.010-0.391 0.008-0.784 0.035-1.174 0.043-0.576 0.215-1.119 0.471-1.633 0.050-0.103 0.053-0.165-0.028-0.26-0.423-0.486-0.641-1.047-0.568-1.703 0.030-0.278 0.128-0.533 0.28-0.766 0.020-0.030 0.025-0.103 0.005-0.123-0.305-0.316-0.456-0.706-0.528-1.127-0.1-0.606-0.035-1.194 0.298-1.723 0.133-0.213 0.313-0.401 0.493-0.576 0.088-0.085 0.11-0.155 0.095-0.265-0.063-0.471-0.005-0.929 0.205-1.352 0.416-0.831 1.114-1.317 2.008-1.477 0.909-0.163 1.708 0.103 2.346 0.789 0.083 0.090 0.16 0.198 0.203 0.313 0.048 0.125 0.133 0.14 0.24 0.168 0.24 0.060 0.491 0.115 0.709 0.225 0.493 0.248 0.739 0.686 0.811 1.219 0.080 0.601-0.040 1.169-0.328 1.7-0.050 0.090-0.108 0.183-0.18 0.253-0.080 0.078-0.105 0.165-0.11 0.268-0.020 0.461-0.16 0.881-0.396 1.277-0.028 0.048-0.043 0.12-0.030 0.173 0.188 0.736 0.16 1.46-0.078 2.181-0.015 0.045-0.002 0.115 0.025 0.155 0.408 0.583 0.591 1.234 0.593 1.941 0 0.333 0 0.669 0 1.002 0 0.040 0 0.083 0 0.133 0.24 0 0.468 0 0.711 0 0.002-0.053 0.008-0.103 0.008-0.155 0-1.345 0-2.687 0-4.031 0-0.358 0.168-0.531 0.526-0.533 0.3-0.003 0.601-0.003 0.901 0.003 0.1 0.003 0.14-0.020 0.155-0.133 0.108-0.801 0.185-1.608 0.351-2.396 0.225-1.064 0.904-1.748 1.953-2.053 0.050-0.015 0.118-0.005 0.123-0.095 0.005-0.095-0.060-0.098-0.118-0.113-0.796-0.22-1.395-0.694-1.798-1.412-0.040-0.073-0.085-0.095-0.165-0.095-0.363 0-0.636-0.163-0.799-0.486-0.16-0.318-0.128-0.633 0.085-0.919 0.055-0.075 0.053-0.13 0.020-0.213-0.135-0.318-0.255-0.643-0.238-0.999 0.013-0.268 0.128-0.481 0.348-0.631 0.055-0.038 0.093-0.073 0.085-0.148-0.118-1.297 0.834-2.191 1.885-2.474 0.906-0.243 1.76-0.128 2.534 0.428 0.020 0.015 0.040 0.025 0.083 0.053 0-0.178-0.010-0.338 0.003-0.496 0.013-0.123 0.053-0.243 0.088-0.363 0.020-0.070 0.070-0.123 0.15-0.093 0.083 0.030 0.090 0.098 0.063 0.175-0.095 0.26-0.115 0.526-0.045 0.831 0.050-0.075 0.088-0.13 0.123-0.185 0.028-0.043 0.043-0.098 0.080-0.125 0.045-0.030 0.105-0.035 0.16-0.050 0.010 0.055 0.045 0.12 0.028 0.165-0.035 0.093-0.1 0.173-0.15 0.258-0.020 0.035-0.038 0.070-0.060 0.115 0.133 0.010 0.253 0.010 0.371 0.028 0.376 0.058 0.636 0.275 0.806 0.606 0.155 0.298 0.23 0.618 0.248 0.949 0.018 0.328 0.008 0.659 0.003 0.987 0 0.080 0.015 0.135 0.085 0.188 0.288 0.215 0.396 0.516 0.333 0.861-0.063 0.348-0.285 0.573-0.623 0.686-0.045 0.015-0.103 0.063-0.113 0.105-0.11 0.556-0.361 1.034-0.744 1.45-0.010 0.013-0.020 0.028-0.033 0.048 0.155 0.098 0.185 0.245 0.168 0.413-0.020 0.173-0.030 0.348-0.048 0.523-0.010 0.095 0.018 0.175 0.103 0.225 0.611 0.353 0.969 0.901 1.199 1.547 0.18 0.501 0.255 1.027 0.323 1.55 0.050 0.393 0.088 0.786 0.13 1.179 0.008 0.073 0.028 0.108 0.113 0.11 0.273 0.005 0.406 0.148 0.408 0.428 0.003 0.834 0 1.67 0 2.504 0 0.651 0.003 1.302 0 1.953 0 0.148-0.015 0.298-0.023 0.458 0.173 0 0.356 0 0.548 0 0-0.038 0-0.070 0-0.103 0.005-0.21 0.145-0.353 0.353-0.358 0.183-0.005 0.368-0.005 0.551 0 0.070 0.003 0.105-0.023 0.13-0.088 0.295-0.746 0.598-1.492 0.889-2.241 0.040-0.1 0.033-0.22 0.035-0.331 0.005-0.373 0.188-0.588 0.556-0.654 0.035-0.005 0.083-0.055 0.090-0.090 0.1-0.406 0.388-0.643 0.804-0.648 0.3-0.005 0.601-0.005 0.901 0.003 0.103 0.003 0.135-0.035 0.125-0.13-0.003-0.033-0.005-0.068 0-0.1 0.020-0.153-0.013-0.253-0.175-0.331-0.218-0.105-0.29-0.378-0.21-0.608 0.080-0.228 0.295-0.361 0.551-0.343 0.218 0.018 0.413 0.19 0.456 0.403 0.050 0.253-0.065 0.491-0.293 0.588-0.085 0.035-0.11 0.080-0.105 0.168 0.005 0.11 0.003 0.223 0.003 0.351 0.073 0 0.13 0 0.185 0 0.326 0.005 0.651-0.008 0.974 0.020 0.346 0.030 0.596 0.283 0.664 0.621 0.013 0.070 0.035 0.098 0.108 0.108 0.205 0.023 0.358 0.133 0.451 0.316 0.033 0.065 0.073 0.090 0.145 0.085 0.12-0.005 0.243 0 0.363-0.003 0.075 0 0.135 0.020 0.143 0.105 0.008 0.095-0.058 0.125-0.135 0.125-0.14 0.005-0.283 0-0.443 0 0 0.108-0.005 0.2 0.005 0.295 0.003 0.028 0.050 0.060 0.080 0.070 0.098 0.025 0.195 0.035 0.295 0.055 0.073 0.015 0.13 0.053 0.115 0.135s-0.078 0.103-0.153 0.088c-0.013-0.003-0.025-0.003-0.038-0.005-0.2-0.050-0.398-0.090-0.511 0.155-0.21 0.073-0.238 0.258-0.3 0.441-0.168 0.501-0.533 0.791-1.047 0.899-0.078 0.015-0.11 0.038-0.103 0.118 0.005 0.070 0.003 0.143 0.003 0.213 0.020-0.010 0.025 0.003 0.033 0.038zM13.025 24.691c0.053 0 0.095 0 0.135 0 2.569 0 5.141 0 7.71 0.003 0.128 0 0.198-0.050 0.218-0.17 0.010-0.053 0.015-0.108 0.015-0.16 0-1.515 0-3.030 0-4.542 0-0.208-0.010-0.218-0.22-0.218-2.504 0-5.005 0-7.509 0-0.033 0-0.068 0-0.1 0-0.108 0.005-0.173 0.053-0.18 0.165-0.002 0.050-0.005 0.1-0.005 0.15 0 1.285 0.002 2.569-0.002 3.856-0.002 0.298 0.045 0.603-0.060 0.916zM35.493 24.669c-0.038-0.040-0.055-0.058-0.073-0.075-0.676-0.676-1.352-1.35-2.028-2.026-0.138-0.138-0.138-0.16-0.028-0.331-0.108-0.028-0.215-0.043-0.313-0.083-0.053-0.023-0.11-0.078-0.125-0.13-0.020-0.083 0.068-0.138 0.173-0.118 0.13 0.025 0.258 0.070 0.391 0.085 0.048 0.005 0.108-0.040 0.148-0.078 0.013-0.013-0.013-0.080-0.038-0.11-0.080-0.090-0.168-0.175-0.253-0.26-0.065-0.065-0.103-0.148-0.033-0.22 0.080-0.080 0.158-0.035 0.223 0.040 0.093 0.105 0.188 0.208 0.278 0.305 0.185-0.135 0.193-0.135 0.358-0.020 0.075 0.053 0.153 0.1 0.228 0.155 0.063 0.048 0.11 0.055 0.173-0.008 0.105-0.108 0.238-0.143 0.378-0.088 0.090 0.035 0.123 0.003 0.163-0.070 0.173-0.318 0.333-0.646 0.531-0.949 0.183-0.28 0.178-0.538 0.058-0.834-0.185-0.456-0.348-0.919-0.521-1.38-0.033-0.085-0.055-0.168 0.053-0.21 0.113-0.045 0.158 0.033 0.19 0.123 0.043 0.113 0.095 0.223 0.133 0.338 0.035 0.103 0.078 0.138 0.19 0.085 0.225-0.105 0.461-0.195 0.691-0.295 0.118-0.050 0.235-0.103 0.366-0.16-0.118-0.255-0.23-0.496-0.336-0.739-0.2-0.456-0.508-0.819-0.936-1.079-0.295-0.18-0.613-0.29-0.972-0.338 0.010 0.058 0.015 0.103 0.025 0.145 0.045 0.2 0.093 0.398 0.135 0.598 0.035 0.16 0.010 0.195-0.148 0.243-0.486 0.15-0.972 0.303-1.457 0.448-0.060 0.018-0.138 0.020-0.193-0.005-0.368-0.178-0.731-0.363-1.097-0.548-0.14-0.073-0.153-0.138-0.060-0.268 0.105-0.148 0.208-0.295 0.31-0.443-0.093 0.018-0.173 0.055-0.245 0.098-0.331 0.2-0.591 0.476-0.789 0.806-0.208 0.348-0.341 0.724-0.378 1.129-0.005 0.043 0.025 0.118 0.055 0.128 0.125 0.038 0.255 0.055 0.388 0.083 0.020-0.063 0.035-0.11 0.048-0.155 0.025-0.083 0.073-0.138 0.163-0.113 0.093 0.025 0.103 0.095 0.083 0.18-0.025 0.105-0.053 0.21-0.063 0.318-0.075 0.844-0.165 1.685-0.218 2.529-0.063 1.032-0.095 2.066-0.138 3.1-0.008 0.19-0.005 0.19 0.193 0.19 1.352 0 2.704 0 4.056 0 0.078 0.005 0.155 0.005 0.26 0.005zM47.675 23.126c-0.013-0.063-0.018-0.108-0.028-0.153-0.115-0.486-0.293-0.946-0.531-1.387-0.043-0.078-0.075-0.163 0.025-0.215 0.093-0.048 0.145 0.018 0.188 0.093 0.295 0.538 0.503 1.107 0.611 1.713 0.028 0.16-0.013 0.2-0.173 0.208-0.573 0.033-1.149 0.063-1.723 0.105-0.248 0.020-0.493 0.073-0.741 0.11 0.010 0.025 0.010 0.035 0.015 0.038 0.033 0.025 0.065 0.050 0.1 0.075 0.27 0.208 0.451 0.471 0.476 0.816 0.010 0.12 0.060 0.14 0.163 0.14 1.022 0 2.046 0.005 3.067 0.008 0.228 0 0.373-0.090 0.428-0.308 0.045-0.175 0.065-0.363 0.063-0.543-0.013-0.546-0.16-1.069-0.3-1.595-0.195-0.739-0.501-1.422-1.017-2.001-0.328-0.366-0.709-0.643-1.182-0.786-0.078-0.023-0.1-0.005-0.138 0.065-0.060 0.115-0.133 0.24-0.233 0.318-0.473 0.368-0.956 0.724-1.44 1.082-0.11 0.083-0.2 0.035-0.218-0.103-0.028-0.21-0.050-0.423-0.075-0.634-0.023-0.178-0.045-0.358-0.073-0.556-0.058 0.038-0.095 0.055-0.125 0.083-0.278 0.263-0.571 0.513-0.826 0.796-0.468 0.516-0.914 1.052-1.375 1.575-0.268 0.303-0.588 0.478-1.009 0.371-0.002 0-0.008 0.005-0.023 0.015 0.005 0.033 0.010 0.073 0.018 0.113 0.038 0.18 0.073 0.361 0.11 0.538 0.063 0.303 0.063 0.303-0.243 0.366-0.138 0.030-0.275 0.063-0.416 0.093 0 0.015 0 0.030 0 0.045 0.248 0.065 0.498 0.133 0.746 0.198 0.363 0.095 0.706 0.048 1.022-0.153 0.393-0.25 0.781-0.511 1.167-0.774 0.040-0.028 0.068-0.095 0.070-0.145 0.015-0.258 0.020-0.516 0.030-0.776 0.005-0.145 0.008-0.293 0.030-0.436 0.008-0.045 0.078-0.113 0.118-0.11 0.043 0.003 0.085 0.070 0.118 0.118 0.013 0.020 0 0.058 0 0.085-0.023 0.603-0.045 1.209-0.068 1.813-0.002 0.053 0 0.105 0 0.153 1.109-0.32 2.239-0.408 3.39-0.456zM11.485 16.556c0.008 0.003 0.013 0.003 0.020 0.005 0.010-0.013 0.020-0.025 0.028-0.040 0.233-0.443 0.336-0.916 0.29-1.415-0.053-0.598-0.336-1.044-0.924-1.247-0.188-0.065-0.391-0.083-0.586-0.118-0.083-0.015-0.158-0.025-0.183-0.12-0.070-0.27-0.243-0.476-0.456-0.641-0.561-0.436-1.192-0.618-1.9-0.483-0.681 0.133-1.234 0.483-1.643 1.037-0.371 0.501-0.471 1.077-0.356 1.688 0.018 0.095-0.005 0.158-0.083 0.215-0.095 0.073-0.195 0.148-0.273 0.235-0.558 0.634-0.699 1.365-0.488 2.171 0.075 0.288 0.2 0.553 0.418 0.761 0.145-0.125 0.283-0.243 0.423-0.361 0.065-0.055 0.14-0.075 0.198 0s0.015 0.138-0.048 0.193c-0.105 0.095-0.21 0.19-0.308 0.293-0.506 0.528-0.659 1.134-0.398 1.83 0.098 0.258 0.24 0.491 0.436 0.691 0.020-0.015 0.030-0.020 0.038-0.030 0.013-0.015 0.025-0.033 0.038-0.050 0.253-0.388 0.558-0.726 0.919-1.017 0.050-0.040 0.090-0.113 0.1-0.178 0.125-0.671 0.1-1.327-0.235-1.946-0.043-0.078-0.030-0.143 0.038-0.2 0.060-0.053 0.123-0.103 0.173-0.163 0.418-0.516 0.633-1.109 0.654-1.773 0.003-0.095-0.035-0.133-0.118-0.173-0.17-0.085-0.333-0.188-0.488-0.298-0.035-0.025-0.043-0.11-0.033-0.163 0.005-0.025 0.080-0.050 0.123-0.050 0.035 0 0.073 0.038 0.103 0.063 0.175 0.14 0.368 0.243 0.596 0.273 0.471 0.058 0.904-0.055 1.305-0.298 0.313-0.19 0.571-0.431 0.681-0.801 0.013-0.040 0.085-0.093 0.125-0.088s0.098 0.068 0.105 0.113c0.038 0.258 0.13 0.493 0.27 0.709 0.31 0.476 0.721 0.794 1.315 0.814 0.108 0.002 0.148 0.060 0.143 0.16-0.002 0.135-0.010 0.268-0.018 0.401zM48.586 19.205c0.002-0.063 0.008-0.115 0.010-0.168 0.013-0.376 0.025-0.751 0.033-1.127 0.015-0.909 0.095-1.818-0.013-2.724-0.058-0.473-0.138-0.941-0.381-1.365-0.188-0.331-0.461-0.586-0.844-0.591-0.331-0.005-0.543-0.158-0.781-0.338-0.861-0.661-1.91-0.716-2.804-0.15-0.636 0.403-1.067 0.974-1.307 1.688-0.178 0.531-0.21 1.067-0.055 1.61 0.023 0.083 0.060 0.113 0.145 0.113 0.321 0.008 0.631-0.028 0.939-0.12 0.656-0.195 1.189-0.573 1.633-1.087 0.1-0.115 0.155-0.123 0.24-0.020 0.233 0.28 0.543 0.391 0.896 0.398 0.456 0.013 0.866-0.145 1.259-0.358 0.070-0.038 0.138-0.058 0.185 0.020 0.050 0.083 0.008 0.145-0.073 0.18-0.225 0.1-0.448 0.2-0.676 0.288-0.075 0.030-0.11 0.058-0.118 0.145-0.033 0.478-0.070 0.957-0.115 1.432-0.078 0.856 0.346 1.628 1.104 1.988 0.225 0.113 0.458 0.178 0.721 0.185zM13.919 9.567c0.183 0.023 0.343 0.033 0.498 0.063 0.088 0.015 0.12 0.090 0.090 0.175-0.028 0.078-0.093 0.083-0.165 0.065-0.531-0.125-0.946 0.258-0.834 0.789 0.060 0.283 0.16 0.561 0.275 0.826 0.14 0.323 0.313 0.631 0.471 0.944 0.055-0.406 0.088-0.804 0.123-1.202 0.018-0.193 0.058-0.22 0.248-0.183 0.416 0.078 0.824 0.053 1.217-0.105 0.481-0.19 0.841-0.503 1.004-1.012 0.040-0.12 0.048-0.238 0.003-0.366-0.090-0.25-0.103-0.513-0.090-0.779 0.005-0.088 0.028-0.165 0.13-0.163 0.11 0.002 0.13 0.083 0.128 0.175-0.003 0.105-0.005 0.208 0.003 0.313 0.030 0.381 0.153 0.719 0.466 0.959 0.418 0.32 0.891 0.396 1.397 0.3 0.195-0.038 0.213-0.030 0.283 0.16 0.135 0.363 0.273 0.726 0.408 1.089 0.013 0.033 0.033 0.063 0.058 0.11 0.015-0.060 0.028-0.095 0.033-0.133 0.055-0.358 0.12-0.714 0.158-1.074 0.050-0.496 0.050-0.992-0.058-1.48-0.018-0.078-0.043-0.153-0.068-0.228-0.2-0.556-0.578-0.776-1.159-0.669-0.098 0.018-0.16-0.002-0.233-0.073-0.135-0.13-0.273-0.26-0.428-0.363-0.669-0.443-1.402-0.536-2.171-0.341-0.711 0.18-1.274 0.571-1.61 1.244-0.153 0.31-0.203 0.636-0.175 0.954zM35.505 12.041c-0.739 0.16-1.462 0.22-2.178-0.088 0.015 0.128 0.030 0.225 0.040 0.325 0.008 0.083-0.013 0.155-0.11 0.165-0.105 0.010-0.14-0.060-0.143-0.148-0.010-0.235-0.105-0.436-0.25-0.613-0.135-0.165-0.278-0.32-0.411-0.486-0.055-0.070-0.098-0.153-0.148-0.233-0.030 0.023-0.053 0.035-0.070 0.050-0.293 0.235-0.623 0.313-0.987 0.208-0.13-0.038-0.2 0.005-0.245 0.113-0.138 0.321-0.29 0.639-0.398 0.969-0.090 0.27-0.143 0.561-0.075 0.851 0.341 1.475 1.735 2.486 3.235 2.324 1.149-0.125 1.963-0.726 2.469-1.758 0.015-0.030 0.020-0.070 0.015-0.105-0.018-0.115 0.038-0.155 0.143-0.173 0.1-0.018 0.208-0.038 0.298-0.083 0.278-0.138 0.418-0.453 0.351-0.759-0.060-0.278-0.305-0.501-0.581-0.518-0.103 0.295-0.155 0.601-0.133 0.916 0.005 0.088 0.058 0.185-0.043 0.25-0.105 0.068-0.153-0.043-0.225-0.078-0.25-0.123-0.373-0.333-0.428-0.596-0.038-0.175-0.083-0.348-0.125-0.536zM6.783 20.407c-0.018 0.013-0.058 0.035-0.093 0.065-0.834 0.714-1.297 1.633-1.437 2.709-0.058 0.436-0.038 0.881-0.050 1.325-0.005 0.163 0 0.163 0.165 0.163 0.909 0 1.82 0 2.729 0 0.030 0 0.058-0.008 0.1-0.013-0.358-0.426-0.393-0.864-0.115-1.34-0.273 0.093-0.536 0.195-0.796 0.305-0.511 0.218-1.017 0.443-1.525 0.659-0.118 0.050-0.2 0.018-0.228-0.073-0.035-0.115 0.038-0.168 0.133-0.2 0.133-0.048 0.265-0.103 0.401-0.145 0.118-0.035 0.15-0.105 0.16-0.228 0.025-0.316 0.070-0.628 0.118-0.939 0.010-0.068 0.063-0.143 0.115-0.185 0.038-0.028 0.12-0.025 0.168 0 0.028 0.013 0.045 0.11 0.025 0.14-0.123 0.175-0.125 0.378-0.148 0.573-0.015 0.14-0.003 0.285-0.003 0.443 0.203-0.098 0.391-0.185 0.578-0.275 0.711-0.341 1.44-0.561 2.246-0.443 0.478 0.070 0.824 0.275 0.972 0.756 0.033 0.105 0.053 0.215 0.078 0.328 0.213 0.035 0.225 0.023 0.225-0.188 0-0.020 0-0.043 0-0.063-0.008-0.453 0.018-0.911-0.135-1.35-0.028-0.080 0.002-0.145 0.083-0.17 0.075-0.025 0.138 0.010 0.155 0.085 0.048 0.205 0.108 0.413 0.125 0.621 0.028 0.316 0.023 0.634 0.033 0.949 0.002 0.060 0 0.12 0.088 0.12 0.113 0 0.223 0 0.341 0 0.002-0.043 0.008-0.075 0.008-0.108 0-0.371 0.008-0.744 0-1.114-0.020-0.796-0.293-1.49-0.856-2.063-0.203-0.205-0.431-0.378-0.694-0.513-0.065 0.128-0.12 0.25-0.185 0.366-0.321 0.563-0.719 1.074-1.129 1.575-0.095 0.115-0.168 0.118-0.268 0.005-0.203-0.233-0.411-0.463-0.598-0.706-0.263-0.348-0.518-0.709-0.784-1.072zM14.618 11.3c-0.005 0.035-0.013 0.068-0.015 0.1-0.040 0.471-0.080 0.939-0.113 1.41-0.005 0.055 0.015 0.115 0.043 0.165 0.513 0.929 1.307 1.407 2.366 1.442 0.228 0.008 0.473 0.020 0.603-0.258-0.065-0.070-0.14-0.153-0.215-0.235-0.155-0.17-0.158-0.373-0.010-0.511 0.145-0.13 0.346-0.11 0.501 0.053 0.14 0.148 0.285 0.293 0.418 0.448 0.075 0.085 0.13 0.098 0.225 0.028 0.576-0.418 0.941-0.969 1.089-1.665 0.013-0.053 0.008-0.118-0.013-0.17-0.173-0.468-0.353-0.936-0.526-1.405-0.025-0.068-0.055-0.085-0.128-0.078-0.669 0.080-1.269-0.050-1.738-0.578-0.008-0.008-0.020-0.010-0.025-0.013-0.488 1.072-1.372 1.365-2.464 1.267zM28.259 25.868c0.195 0.043 0.198 0.043 0.218 0.248 0.008 0.070 0.030 0.11 0.108 0.103 0.038-0.003 0.075 0 0.113 0 7.269 0 14.535 0 21.804 0 0.038 0 0.078 0.005 0.113-0.003 0.028-0.008 0.068-0.023 0.078-0.048 0.070-0.163 0.135-0.328 0.208-0.513-0.083 0-0.145 0-0.208 0-4.722 0-9.447 0-14.17 0.003-0.093 0-0.185 0.035-0.28 0.043-0.090 0.008-0.18 0-0.27-0.008-0.070-0.005-0.138-0.035-0.205-0.035-2.456-0.003-4.915-0.003-7.372-0.003-0.045 0-0.088 0.005-0.138 0.008 0.003 0.078 0.003 0.138 0.003 0.205zM7.589 16.366c0.050-0.010 0.090-0.018 0.13-0.025 0.218-0.040 0.431-0.035 0.641 0.040 0.078 0.028 0.155 0.065 0.118 0.17-0.035 0.093-0.113 0.080-0.19 0.053-0.225-0.078-0.448-0.073-0.671 0.018-0.073 0.030-0.113 0.065-0.135 0.14-0.133 0.436-0.338 0.834-0.661 1.164-0.023 0.023-0.028 0.080-0.018 0.115 0.068 0.243 0.14 0.486 0.218 0.729 0.020 0.063 0.050 0.135 0.1 0.175 0.558 0.463 1.199 0.648 1.92 0.566 1.099-0.125 2.031-1.059 2.146-2.158 0.030-0.29 0.038-0.583 0.063-0.874 0.020-0.223 0.025-0.22-0.188-0.27-0.671-0.153-1.089-0.596-1.375-1.192-0.018-0.038-0.038-0.078-0.063-0.13-0.238 0.331-0.536 0.553-0.884 0.714-0.351 0.16-0.716 0.235-1.104 0.228-0.018 0.183-0.033 0.356-0.048 0.538zM16.238 14.991c-0.018 0.005-0.063 0.013-0.105 0.025-0.899 0.283-1.482 0.884-1.688 1.798-0.148 0.661-0.21 1.342-0.31 2.013-0.023 0.16-0.038 0.32-0.058 0.488 1.38 0 2.739 0 4.101 0-0.023-0.22-0.023-0.223-0.218-0.265-0.849-0.185-1.698-0.168-2.544 0.013-0.195 0.043-0.245 0.005-0.228-0.198 0.035-0.458 0.080-0.914 0.118-1.37 0.008-0.090 0.038-0.163 0.138-0.155s0.123 0.088 0.113 0.175c-0.020 0.228-0.043 0.456-0.060 0.686-0.015 0.188-0.028 0.378-0.043 0.591 0.884-0.173 1.74-0.173 2.594 0.013 0.005-0.030 0.010-0.043 0.008-0.053-0.075-0.448-0.148-0.896-0.228-1.345-0.095-0.533-0.26-1.042-0.543-1.51-0.048-0.078-0.1-0.118-0.198-0.118-0.263 0-0.483-0.113-0.631-0.325-0.090-0.135-0.14-0.298-0.218-0.463zM23.717 25.668c-7.061 0-14.1 0-21.153 0 0.053 0.133 0.11 0.25 0.145 0.373 0.040 0.145 0.12 0.183 0.268 0.183 6.751-0.005 13.501-0.003 20.252-0.003 0.033 0 0.068 0.005 0.1-0.003 0.028-0.005 0.060-0.018 0.073-0.038 0.103-0.165 0.203-0.333 0.316-0.513zM26.441 23.472c0 0.005 0 0.010 0 0.018 0.273-0.018 0.546-0.030 0.819-0.055 0.656-0.055 1.107-0.561 1.044-1.194-0.045-0.456-0.118-0.909-0.19-1.36-0.045-0.285-0.25-0.448-0.543-0.451-0.756-0.003-1.51-0.003-2.266 0-0.318 0-0.521 0.19-0.561 0.506-0.050 0.401-0.098 0.801-0.163 1.199-0.090 0.568 0.245 1.114 0.804 1.254 0.19 0.048 0.393 0.063 0.591 0.080 0.155 0.013 0.311 0.003 0.466 0.003zM24.295 24.966c-0.068 0-0.11 0-0.15 0-1.072 0-2.146 0.003-3.218 0.003-6.528 0-13.053-0.003-19.581 0-0.325 0-0.273-0.065-0.278 0.298 0 0.068 0.025 0.1 0.095 0.098 0.045-0.003 0.093 0 0.138 0 7.492 0 14.981 0 22.473 0 0.088 0 0.175 0.003 0.263 0 0.030-0.003 0.075-0.013 0.085-0.033 0.060-0.115 0.11-0.233 0.173-0.366zM45.301 15.169c-0.015 0.008-0.025 0.010-0.030 0.015-0.608 0.656-1.337 1.082-2.236 1.192-0.025 0.003-0.063 0.055-0.060 0.083 0.008 0.125 0.018 0.25 0.040 0.373 0.28 1.387 1.552 2.271 2.947 2.048 0.336-0.053 0.648-0.17 0.941-0.363-0.028-0.048-0.053-0.085-0.075-0.125-0.218-0.368-0.336-0.764-0.313-1.192 0.018-0.353 0.058-0.706 0.088-1.059 0.015-0.193 0.025-0.386 0.038-0.581-0.511 0.033-0.972-0.035-1.34-0.391zM19.112 16.090c-0.033 0.005-0.050 0.003-0.063 0.010-0.366 0.14-0.731 0.283-1.097 0.423-0.078 0.030-0.065 0.078-0.050 0.14 0.065 0.268 0.135 0.533 0.188 0.804 0.113 0.576 0.218 1.154 0.323 1.733 0.018 0.103 0.065 0.133 0.168 0.13 0.628-0.005 1.259-0.003 1.888-0.003 0.040 0 0.080-0.005 0.13-0.008-0.003-0.053-0.003-0.093-0.008-0.133-0.078-0.611-0.143-1.224-0.238-1.833-0.088-0.563-0.263-1.102-0.608-1.572-0.14-0.19-0.298-0.363-0.506-0.501-0.048 0.22-0.18 0.431 0.045 0.616 0.018 0.015 0.023 0.045 0.033 0.068 0.311 0.679 0.521 1.387 0.669 2.118 0.040 0.195 0.075 0.393 0.113 0.588 0.015 0.083 0 0.155-0.093 0.175-0.088 0.018-0.13-0.040-0.145-0.12-0.008-0.040-0.018-0.083-0.025-0.123-0.12-0.691-0.28-1.372-0.531-2.028-0.058-0.165-0.125-0.326-0.193-0.486zM36.472 24.951c-0.008 0.013-0.018 0.025-0.025 0.035 0.013 0.060 0.025 0.118 0.040 0.178 0.050 0.198 0.050 0.198 0.258 0.198 5.115 0 10.231 0 15.344 0 0.25 0 0.223 0.033 0.223-0.23 0-0.168 0-0.168-0.16-0.168-4.878 0-9.755 0-14.63 0-0.055 0-0.11-0.005-0.163 0.003-0.043 0.005-0.088 0.020-0.123 0.045-0.193 0.148-0.358 0.148-0.561 0.010-0.055-0.038-0.133-0.048-0.203-0.070zM36.364 22.753c0.080-0.125 0.155-0.238 0.228-0.353 0.288-0.458 0.561-0.926 0.759-1.435 0.1-0.263 0.15-0.528 0.070-0.806-0.085-0.3-0.168-0.601-0.265-0.899-0.070-0.218-0.16-0.428-0.245-0.648-0.048 0.018-0.083 0.028-0.118 0.043-0.323 0.135-0.644 0.275-0.969 0.406-0.098 0.040-0.113 0.083-0.078 0.178 0.105 0.293 0.2 0.591 0.305 0.886 0.055 0.158 0.033 0.3-0.048 0.443-0.145 0.263-0.285 0.528-0.431 0.791-0.108 0.195-0.218 0.391-0.308 0.548 0.11 0.113 0.203 0.208 0.298 0.298 0.028 0.025 0.070 0.043 0.108 0.050 0.123 0.025 0.21 0.090 0.27 0.2 0.015 0.030 0.048 0.073 0.073 0.073 0.158 0.008 0.26 0.090 0.351 0.225zM40.353 20.212c-0.491 0.103-0.962 0.203-1.437 0.303 0.043 0.198 0.075 0.378 0.12 0.553 0.008 0.035 0.050 0.075 0.085 0.085 0.198 0.068 0.273 0.16 0.29 0.371 0.002 0.033 0.030 0.073 0.060 0.090 0.18 0.11 0.233 0.233 0.195 0.443-0.008 0.038 0.008 0.088 0.030 0.118 0.123 0.16 0.128 0.303 0.018 0.471-0.020 0.030-0.030 0.085-0.018 0.118 0.080 0.213 0.043 0.343-0.148 0.488-0.020 0.015-0.045 0.045-0.043 0.065 0.018 0.105 0.045 0.208 0.070 0.32 0.486-0.103 0.956-0.2 1.435-0.303-0.223-1.047-0.438-2.076-0.659-3.122zM35.711 25.365c-0.020-0.088-0.035-0.148-0.050-0.208-0.063-0.22-0.025-0.19-0.245-0.19-2.299 0-4.597 0-6.898 0-0.295 0-0.243-0.040-0.255 0.25-0.005 0.113 0.028 0.15 0.148 0.15 2.379-0.003 4.757-0.003 7.134-0.003 0.048 0 0.098 0 0.168 0zM18.97 15.87c-0.013-0.035-0.020-0.055-0.028-0.075-0.033-0.080-0.1-0.15-0.033-0.253 0.125-0.19 0.098-0.386-0.003-0.581-0.033-0.065-0.045-0.148-0.043-0.223 0.010-0.203 0.040-0.406 0.045-0.611 0.003-0.045-0.050-0.123-0.090-0.133-0.075-0.020-0.103 0.045-0.108 0.115-0.005 0.1-0.008 0.2-0.028 0.298-0.013 0.058-0.045 0.133-0.090 0.158-0.033 0.018-0.118-0.025-0.155-0.065-0.27-0.278-0.533-0.563-0.801-0.844-0.025-0.028-0.050-0.065-0.083-0.075-0.038-0.010-0.1-0.013-0.123 0.013-0.023 0.023-0.018 0.083-0.010 0.123 0.005 0.025 0.035 0.045 0.055 0.065 0.185 0.203 0.371 0.408 0.556 0.611 0.058 0.063 0.088 0.133 0.018 0.198s-0.138 0.033-0.193-0.033c-0.035-0.040-0.065-0.093-0.11-0.118-0.043-0.023-0.103-0.018-0.153-0.025 0.003 0.053-0.013 0.113 0.010 0.153 0.038 0.068 0.113 0.115 0.148 0.183 0.020 0.043 0.013 0.123-0.015 0.16-0.018 0.023-0.108 0.013-0.148-0.010-0.053-0.030-0.088-0.088-0.128-0.135-0.053-0.063-0.115-0.118-0.19-0.053s-0.015 0.128 0.033 0.18c0.050 0.055 0.103 0.11 0.15 0.168 0.050 0.060 0.048 0.125-0.013 0.178s-0.123 0.045-0.175-0.015c-0.028-0.030-0.053-0.063-0.080-0.095-0.050-0.058-0.113-0.083-0.17-0.018-0.055 0.063-0.010 0.105 0.035 0.158 0.16 0.18 0.326 0.356 0.463 0.551 0.11 0.153 0.183 0.333 0.278 0.508 0.391-0.15 0.779-0.303 1.177-0.458zM30.625 18.789c-0.008 0.048-0.013 0.080-0.015 0.113-0.028 0.333-0.053 0.666-0.078 0.997-0.058 0.786-0.115 1.57-0.17 2.356-0.033 0.436-0.063 0.874-0.093 1.31-0.023 0.326-0.038 0.648-0.063 0.974-0.008 0.1 0.028 0.138 0.128 0.133 0.083-0.005 0.168-0.008 0.25 0 0.098 0.008 0.135-0.035 0.135-0.13 0-0.143 0.008-0.283 0.015-0.426 0.043-0.916 0.080-1.833 0.128-2.749 0.023-0.441 0.058-0.881 0.093-1.322 0.030-0.353 0.070-0.706 0.1-1.059 0.003-0.038-0.023-0.108-0.048-0.115-0.123-0.033-0.25-0.053-0.383-0.080zM36.182 23.311c-0.268 0.213-0.338 0.213-0.621 0.005-0.020-0.015-0.060-0.013-0.090-0.008-0.2 0.043-0.331-0.018-0.438-0.2-0.020-0.033-0.063-0.065-0.1-0.070-0.2-0.038-0.308-0.14-0.321-0.338-0.005-0.065-0.025-0.093-0.083-0.115-0.173-0.068-0.273-0.205-0.23-0.378 0.038-0.145-0.025-0.203-0.128-0.26-0.050-0.028-0.098-0.063-0.153-0.098-0.153 0.185-0.3 0.363-0.446 0.541 0.013 0.023 0.018 0.033 0.028 0.043 0.709 0.706 1.415 1.415 2.126 2.118 0.115 0.113 0.28 0.105 0.388-0.020 0.165-0.188 0.323-0.381 0.478-0.578 0.1-0.128 0.080-0.295-0.045-0.388-0.118-0.090-0.243-0.17-0.366-0.253zM44.262 19.303c0.010-0.023 0.018-0.030 0.018-0.038 0.002-0.088-0.002-0.175 0.005-0.263 0.010-0.105-0.030-0.16-0.123-0.215-0.716-0.413-1.174-1.022-1.36-1.83-0.040-0.18-0.058-0.368-0.088-0.556-0.065 0-0.125 0-0.188 0-0.005 0.033-0.013 0.055-0.013 0.080 0 0.326-0.005 0.651 0.002 0.974 0.010 0.443 0.158 0.841 0.446 1.179 0.341 0.401 0.774 0.621 1.3 0.669zM9.663 24.063c-0.063-0.13-0.115-0.225-0.153-0.328-0.015-0.045-0.015-0.118 0.013-0.153 0.043-0.060 0.113-0.045 0.16 0.008 0.038 0.043 0.073 0.093 0.098 0.145 0.035 0.080 0.060 0.163 0.090 0.245 0.030 0.080 0.095 0.103 0.16 0.070 0.038-0.020 0.080-0.095 0.073-0.133-0.073-0.303-0.198-0.581-0.538-0.656-0.22-0.050-0.451-0.073-0.679-0.075-0.318-0.005-0.548 0.163-0.674 0.451-0.13 0.298-0.073 0.576 0.145 0.811 0.148 0.16 0.336 0.25 0.573 0.22-0.023-0.068-0.045-0.125-0.058-0.185-0.013-0.065-0.015-0.133-0.015-0.198-0.002-0.185 0.033-0.22 0.215-0.22 0.183-0.003 0.366-0.003 0.588-0.003zM45.301 20.615c0.043-0.025 0.065-0.035 0.085-0.048 0.363-0.27 0.729-0.541 1.089-0.816 0.328-0.248 0.363-0.396 0.24-0.859-0.503 0.228-1.032 0.303-1.595 0.23 0.063 0.508 0.12 0.994 0.18 1.492zM12.825 19.613c-0.21-0.025-0.29 0.043-0.29 0.248 0 0.233 0 0.466 0 0.701 0 1.325 0 2.652 0.002 3.976 0 0.048 0.025 0.095 0.040 0.143 0.050-0.023 0.128-0.033 0.148-0.073 0.048-0.088 0.095-0.19 0.098-0.285 0.005-1.567 0.002-3.132 0.002-4.71zM32.631 15.662c0.018 0.173 0.013 0.338 0.055 0.491 0.083 0.295 0.193 0.586 0.293 0.876 0.025 0.078 0.053 0.155 0.083 0.243 0.030-0.023 0.050-0.033 0.063-0.048 0.336-0.373 0.666-0.746 1.004-1.114 0.085-0.095 0.118-0.193 0.113-0.316-0.005-0.095-0.030-0.123-0.128-0.103-0.328 0.065-0.661 0.090-0.994 0.043-0.153-0.023-0.305-0.045-0.488-0.073zM23.144 24.2c0.466 0.083 0.468 0.088 0.521 0.463 0.15-0.010 0.285-0.128 0.328-0.308 0.123-0.526 0.245-1.052 0.351-1.582 0.020-0.095-0.018-0.233-0.080-0.308-0.080-0.095-0.215-0.143-0.338-0.22-0.255 0.646-0.518 1.3-0.781 1.956zM7.439 19.45c-0.108 0.511-0.028 0.839 0.3 1.082 0.283 0.208 0.689 0.21 0.977 0.015 0.265-0.18 0.413-0.513 0.341-0.799-0.563 0.055-1.109-0.030-1.618-0.298zM8.295 21.969c0.090-0.113 0.16-0.198 0.23-0.285 0.343-0.446 0.686-0.891 0.931-1.402 0.083-0.17 0.078-0.175-0.1-0.23-0.015-0.005-0.030-0.008-0.053-0.010-0.14 0.533-0.473 0.859-1.032 0.874-0.553 0.015-0.911-0.278-1.089-0.794-0.193 0.058-0.21 0.080-0.108 0.233 0.203 0.311 0.413 0.616 0.636 0.911 0.178 0.235 0.378 0.458 0.583 0.704zM24.776 25.865c0.22 0.050 0.155 0.2 0.11 0.353 0.065 0 0.108 0 0.153 0 0.669 0 1.335-0.003 2.003 0.003 0.128 0.003 0.165-0.040 0.173-0.16 0.005-0.058 0.048-0.143 0.095-0.163 0.133-0.058 0.15-0.073 0.095-0.24-0.050 0-0.105 0-0.158 0-0.731 0-1.46 0-2.191 0-0.203 0-0.203 0-0.28 0.208zM28.377 27.303c0.005-0.030 0.010-0.043 0.008-0.055-0.043-0.356-0.083-0.711-0.13-1.064-0.005-0.028-0.068-0.068-0.103-0.068-0.208-0.005-0.416 0-0.623-0.003-0.068 0-0.095 0.020-0.103 0.090-0.045 0.396-0.098 0.791-0.145 1.189-0.015 0.123-0.023 0.245-0.038 0.393 0.373-0.23 0.701-0.478 1.134-0.483zM24.17 27.683c0.175-0.551 0.343-1.074 0.513-1.608-0.233-0.105-0.456-0.21-0.681-0.305-0.025-0.010-0.090 0.025-0.11 0.055-0.17 0.268-0.333 0.538-0.498 0.809-0.023 0.038-0.043 0.078-0.068 0.125 0.413 0.19 0.593 0.571 0.844 0.924zM27.082 23.717c-0.441 0-0.856 0-1.279 0 0 0.331 0 0.651 0 0.984 0.408 0 0.814 0 1.217-0.003 0.020 0 0.060-0.045 0.060-0.070 0.003-0.3 0.003-0.598 0.003-0.911zM10.729 20.627c0.168-0.586 0.203-1.169 0.063-1.788-0.408 0.456-0.896 0.734-1.49 0.886 0.28 0.145 0.531 0.253 0.759 0.398 0.23 0.145 0.438 0.326 0.669 0.503zM12.254 24.341c-1.049 0-2.086 0-3.12 0 0 0.208 0.145 0.346 0.353 0.346 0.879 0 1.76 0 2.639 0 0.040 0 0.080-0.005 0.128-0.010 0-0.115 0-0.223 0-0.336zM45.661 24.679c-0.002-0.070 0-0.133-0.010-0.19-0.068-0.351-0.436-0.729-0.784-0.801-0.020-0.005-0.043-0.008-0.063-0.003-0.421 0.108-0.766 0.308-0.909 0.749-0.025 0.075-0.033 0.158-0.048 0.235 0.215 0.035 0.215 0.035 0.27-0.145 0.068-0.225 0.2-0.401 0.416-0.506 0.068-0.033 0.145-0.028 0.165 0.050 0.010 0.045-0.030 0.105-0.058 0.155-0.013 0.023-0.050 0.028-0.073 0.045-0.138 0.1-0.218 0.23-0.235 0.401 0.218 0.038 0.22 0.038 0.313-0.143 0.065-0.13 0.17-0.215 0.3-0.268 0.078-0.030 0.163-0.058 0.203 0.043 0.040 0.095-0.025 0.143-0.11 0.173-0.090 0.033-0.17 0.083-0.19 0.203 0.27 0.003 0.533 0.003 0.811 0.003zM24.521 23.099c-0.13 0.538-0.255 1.062-0.381 1.582 0.28 0.045 0.285 0.043 0.406-0.225 0.018-0.038 0.035-0.075 0.053-0.113 0.060-0.135 0.16-0.225 0.305-0.248 0.125-0.020 0.255-0.025 0.383-0.030 0.311-0.010 0.268 0.063 0.265-0.283 0-0.033-0.048-0.090-0.078-0.095-0.368-0.068-0.669-0.243-0.899-0.541-0.013-0.015-0.028-0.025-0.055-0.048zM25.012 25.357c0.063 0.003 0.103 0.005 0.143 0.005 0.664 0 1.325 0.003 1.988 0 0.316-0.003 0.278 0.073 0.28-0.298 0-0.078-0.035-0.1-0.108-0.098-0.676 0.003-1.35 0-2.026 0.003-0.038 0-0.093 0.013-0.108 0.040-0.060 0.105-0.11 0.218-0.17 0.348zM41.48 23.231c-0.002-0.035-0.002-0.058-0.005-0.078-0.198-0.951-0.398-1.905-0.598-2.857-0.038-0.185-0.040-0.185-0.22-0.145-0.020 0.005-0.038 0.013-0.070 0.025 0.218 1.034 0.433 2.066 0.651 3.105 0.088-0.018 0.158-0.033 0.243-0.050zM24.28 25.628c0.058 0.028 0.108 0.048 0.153 0.075 0.088 0.053 0.138 0.033 0.178-0.065 0.095-0.225 0.203-0.446 0.305-0.671 0.065-0.143 0.135-0.285 0.193-0.433 0.045-0.118-0.038-0.228-0.15-0.198-0.060 0.018-0.125 0.080-0.153 0.138-0.165 0.341-0.318 0.686-0.476 1.032-0.020 0.038-0.033 0.078-0.050 0.123zM27.706 25.152c0 0.208 0.003 0.416-0.003 0.623-0.003 0.090 0.050 0.105 0.12 0.098 0.063-0.008 0.155 0.035 0.155-0.085 0-0.428 0-0.856 0-1.287 0-0.013 0-0.028-0.008-0.035-0.038-0.043-0.078-0.118-0.118-0.12-0.045 0-0.098 0.063-0.13 0.108-0.020 0.030-0.015 0.080-0.015 0.12-0.005 0.195-0.003 0.388-0.003 0.578zM34.476 16.969c-0.055-0.238-0.105-0.458-0.163-0.706-0.316 0.348-0.606 0.671-0.896 0.997 0.008 0.008 0.015 0.018 0.020 0.025 0.341-0.103 0.681-0.205 1.039-0.316zM32.002 16.904c0.273 0.135 0.523 0.258 0.774 0.383 0.008-0.008 0.018-0.015 0.025-0.023-0.11-0.323-0.22-0.646-0.338-0.997-0.163 0.225-0.305 0.423-0.461 0.636zM28.893 27.886c-0.053-0.155-0.133-0.27-0.268-0.3-0.138-0.033-0.288-0.035-0.428-0.020-0.238 0.030-0.431 0.165-0.648 0.32 0.466 0 0.894 0 1.345 0zM22.62 27.090c0.406 0.185 0.801 0.366 1.227 0.561-0.175-0.308-0.356-0.558-0.659-0.691-0.2-0.090-0.393-0.050-0.568 0.13zM13.656 11.796c-0.175 0.24-0.16 0.551 0.025 0.781 0.128 0.16 0.356 0.253 0.486 0.195-0.168-0.32-0.336-0.641-0.511-0.977zM26.431 19.468c0.163 0.003 0.298-0.125 0.303-0.285s-0.135-0.308-0.295-0.305c-0.16 0-0.293 0.133-0.293 0.295-0.003 0.165 0.12 0.293 0.285 0.295zM24.441 21.156c-0.195 0.005-0.333 0.128-0.346 0.311-0.010 0.15-0.010 0.3-0.003 0.448 0.008 0.128 0.070 0.225 0.205 0.29 0.050-0.356 0.095-0.696 0.143-1.049zM19.843 11.939c0.24-0.1 0.366-0.268 0.413-0.503 0.043-0.215-0.050-0.456-0.215-0.563-0.065 0.351-0.128 0.699-0.198 1.067zM16.936 15.492c-0.030-0.030-0.053-0.050-0.075-0.073-0.158-0.15-0.148-0.401 0.038-0.516 0.105-0.065 0.113-0.143 0.105-0.258-0.165 0-0.323 0-0.483 0-0.053 0.453 0.11 0.791 0.416 0.846zM28.575 22.172c0.018 0.005 0.035 0.010 0.053 0.015 0.043-0.073 0.115-0.14 0.123-0.215 0.018-0.18 0.020-0.366 0.003-0.548-0.015-0.16-0.175-0.275-0.316-0.245 0.045 0.331 0.093 0.664 0.138 0.994zM39.372 19.012c0.002-0.14-0.12-0.263-0.263-0.263-0.138 0-0.258 0.115-0.263 0.25-0.005 0.143 0.113 0.268 0.255 0.27 0.145 0.003 0.268-0.115 0.27-0.258zM36.434 24.503c0.153 0.125 0.288 0.24 0.428 0.348 0.075 0.058 0.165 0.048 0.205-0.030 0.028-0.053 0.025-0.163-0.010-0.198-0.128-0.128-0.275-0.238-0.423-0.361-0.068 0.085-0.13 0.158-0.2 0.24zM23.031 24.701c0 0 0 0 0 0 0.088 0 0.175 0.003 0.26 0 0.080-0.003 0.148-0.045 0.13-0.128-0.010-0.050-0.078-0.118-0.123-0.12-0.173-0.015-0.348-0.015-0.521 0-0.045 0.005-0.085 0.080-0.125 0.125 0.043 0.043 0.080 0.105 0.133 0.12 0.075 0.018 0.16 0.003 0.245 0.003zM36.88 23.614c0 0.115 0 0.21 0 0.316 0.173 0.010 0.341 0.028 0.511 0.030 0.088 0 0.148-0.063 0.148-0.155 0-0.083-0.048-0.143-0.135-0.15-0.173-0.015-0.346-0.028-0.523-0.040zM35.836 24.869c0.048 0.175 0.088 0.346 0.138 0.513 0.025 0.088 0.095 0.13 0.185 0.105 0.088-0.023 0.133-0.093 0.113-0.183-0.038-0.165-0.085-0.328-0.128-0.488-0.108 0.018-0.2 0.033-0.308 0.053zM38.891 22.175c0.178-0.043 0.325-0.068 0.466-0.118 0.043-0.015 0.095-0.108 0.083-0.135-0.020-0.045-0.098-0.098-0.143-0.093-0.143 0.018-0.285 0.053-0.421 0.1-0.040 0.015-0.088 0.093-0.083 0.135 0 0.043 0.068 0.080 0.098 0.11zM39.447 22.29c-0.173 0.040-0.321 0.068-0.463 0.115-0.040 0.015-0.093 0.095-0.083 0.133 0.010 0.043 0.088 0.1 0.13 0.095 0.148-0.018 0.295-0.053 0.436-0.1 0.040-0.013 0.080-0.095 0.078-0.143-0.002-0.038-0.068-0.073-0.098-0.1zM30.222 13.038c-0.018-0.318-0.035-0.639-0.050-0.957-0.27 0.253-0.24 0.749 0.050 0.957zM35.21 22.22c-0.005 0.003-0.025 0.005-0.035 0.015-0.105 0.133-0.213 0.263-0.308 0.403-0.018 0.025 0.010 0.113 0.040 0.133 0.033 0.020 0.118 0.013 0.14-0.018 0.098-0.118 0.185-0.245 0.265-0.373 0.045-0.068-0.018-0.163-0.103-0.16zM35.736 22.603c-0.028-0.030-0.053-0.080-0.085-0.085-0.040-0.008-0.103 0.013-0.128 0.043-0.088 0.105-0.16 0.223-0.24 0.336-0.045 0.063-0.038 0.118 0.023 0.163 0.063 0.048 0.12 0.025 0.163-0.033 0.080-0.108 0.155-0.218 0.23-0.328 0.010-0.023 0.018-0.053 0.038-0.095zM38.781 21.699c0.123-0.030 0.223-0.040 0.305-0.080 0.043-0.020 0.088-0.1 0.078-0.143-0.010-0.040-0.088-0.090-0.135-0.090-0.090 0-0.185 0.023-0.265 0.060-0.043 0.020-0.090 0.093-0.085 0.14 0.005 0.043 0.073 0.080 0.103 0.113zM39.104 23.131c0.13-0.033 0.235-0.050 0.328-0.090 0.035-0.018 0.070-0.1 0.058-0.14s-0.085-0.085-0.128-0.083c-0.093 0.005-0.19 0.030-0.275 0.068-0.040 0.018-0.088 0.088-0.080 0.128 0.005 0.043 0.065 0.080 0.098 0.118zM36.144 22.918c-0.035-0.053-0.048-0.103-0.078-0.113-0.035-0.015-0.103-0.015-0.123 0.010-0.070 0.080-0.133 0.17-0.183 0.263-0.015 0.028 0.008 0.090 0.033 0.118 0.020 0.023 0.093 0.033 0.108 0.018 0.085-0.093 0.16-0.193 0.243-0.295zM34.942 22.037c-0.010-0.013-0.028-0.058-0.055-0.065-0.040-0.010-0.098-0.010-0.128 0.013-0.073 0.055-0.138 0.12-0.193 0.193-0.023 0.030-0.023 0.088-0.013 0.125 0.008 0.025 0.055 0.050 0.088 0.055 0.085 0.010 0.303-0.213 0.3-0.32zM22.423 24.451c-0.1-0.005-0.205-0.038-0.278 0.055-0.023 0.030-0.018 0.125-0.005 0.13 0.085 0.033 0.178 0.048 0.28 0.070 0.003-0.105 0.003-0.175 0.003-0.255zM7.054 19.871c0.13-0.093 0.143-0.538 0.033-0.591-0.010 0.193-0.020 0.381-0.033 0.591z"></path>
<path fill="#24609f" style="fill: var(--color16, #24609f)" d="M30.453 12.026c0.113 0.008 0.293-0.871 0.576-0.994 0.16-0.068 0.183 0.055 0.593 0.050 0.421-0.005 0.631-0.513 0.744-0.393 0.083 0.088 0.313 0.548 0.719 0.881 1.069 0.876 2.514 0.098 2.642 0.325 0.115 0.208 0.1 1.089 0.343 1.059 0.1-0.013 0.015-0.934 0.293-1.044 0.073-0.030 0.098 0.015 0.13-0.030 0.070-0.095-0.050-1.187-0.669-1.835-0.846-0.891-2.326-0.861-3.273-0.558-0.2 0.065-1.545 0.513-1.978 1.66-0.173 0.448-0.155 0.876-0.12 0.879z"></path>
<path fill="#2872bc" style="fill: var(--color17, #2872bc)" d="M30.575 11.085c0 0 0.994-1.542 2.582-1.758 1.477-0.2 2.574 0.633 2.574 0.633s-0.356-0.336-0.583-0.483c-0.759-0.491-1.778-0.671-2.787-0.3-1.387 0.511-1.785 1.908-1.785 1.908z"></path>
<path fill="#1c4f84" style="fill: var(--color18, #1c4f84)" d="M40.578 18.714c0-0.22 0-0.441 0-0.664 0-0.143 0.048-0.178 0.183-0.15 0.113 0.023 0.245 0.090 0.331 0.050 0.080-0.038 0.113-0.183 0.165-0.283 0.078-0.148 0.148-0.298 0.233-0.441 0.028-0.045 0.095-0.065 0.143-0.095 0.030 0.053 0.085 0.108 0.083 0.16-0.035 0.478-0.080 0.954-0.123 1.43-0.008 0.088-0.055 0.135-0.15 0.128-0.063-0.005-0.128 0.008-0.188-0.008-0.135-0.035-0.193 0.030-0.24 0.143-0.063 0.15-0.14 0.293-0.21 0.438-0.033 0.068-0.073 0.145-0.153 0.105-0.048-0.023-0.085-0.108-0.088-0.168-0.010-0.215-0.005-0.433-0.005-0.651 0.010 0.005 0.015 0.005 0.020 0.005zM40.821 18.794c0.060-0.233 0.235-0.215 0.413-0.193 0.008 0 0.020 0.005 0.025 0 0.038-0.030 0.098-0.055 0.103-0.090 0.025-0.188 0.038-0.378 0.055-0.578-0.020 0.020-0.033 0.025-0.038 0.035-0.078 0.24-0.22 0.341-0.471 0.23-0.018-0.008-0.083 0.040-0.085 0.065-0.005 0.173-0.002 0.351-0.002 0.531z"></path>
<path fill="#1b4f7f" style="fill: var(--color15, #1b4f7f)" d="M27.994 17.755c-0.038 0.043-0.063 0.093-0.093 0.095-0.048 0.005-0.103-0.013-0.143-0.038-0.185-0.118-0.353-0.275-0.551-0.361-0.739-0.32-1.422-0.2-2.038 0.313-0.025 0.023-0.045 0.058-0.075 0.065-0.050 0.010-0.105 0.005-0.158 0.005 0-0.055-0.023-0.135 0.005-0.163 0.090-0.095 0.195-0.18 0.305-0.258 0.791-0.551 1.933-0.463 2.632 0.203 0.043 0.038 0.075 0.085 0.115 0.138z"></path>
<path fill="#1b4f7f" style="fill: var(--color15, #1b4f7f)" d="M27.385 18.311c-0.003 0.113-0.085 0.163-0.16 0.125-0.033-0.018-0.060-0.045-0.088-0.070-0.418-0.351-0.977-0.351-1.397-0.003-0.015 0.013-0.033 0.028-0.048 0.040-0.055 0.053-0.115 0.073-0.175 0.010-0.068-0.068-0.033-0.128 0.025-0.183 0.158-0.148 0.338-0.255 0.548-0.308 0.451-0.113 0.856-0.023 1.209 0.283 0.040 0.035 0.068 0.083 0.085 0.105z"></path>
<path fill="#164b82" style="fill: var(--color19, #164b82)" d="M37.912 17.114c0.018-0.020 0.048-0.080 0.073-0.078 0.053 0.005 0.128 0.028 0.15 0.068 0.135 0.233 0.258 0.473 0.386 0.711 0.005 0.010 0.018 0.025 0.015 0.033-0.015 0.048-0.023 0.115-0.055 0.133s-0.12-0.003-0.138-0.030c-0.145-0.255-0.283-0.516-0.421-0.776-0.002-0.010-0.002-0.025-0.010-0.060z"></path>
<path fill="#fff" style="fill: var(--color1, #fff)" d="M13.025 24.691c0.105-0.313 0.060-0.618 0.060-0.919 0.005-1.285 0.002-2.569 0.002-3.856 0-0.050 0-0.1 0.005-0.15 0.008-0.113 0.073-0.163 0.18-0.165 0.033 0 0.068 0 0.1 0 2.504 0 5.005 0 7.509 0 0.21 0 0.22 0.010 0.22 0.218 0 1.515 0 3.030 0 4.542 0 0.053-0.005 0.108-0.015 0.16-0.020 0.12-0.090 0.17-0.218 0.17-2.569-0.003-5.141-0.003-7.71-0.003-0.043 0.003-0.083 0.003-0.135 0.003zM17.122 21.586c-0.278 0-0.506 0.228-0.501 0.498 0.005 0.278 0.23 0.496 0.506 0.496s0.501-0.228 0.501-0.501c0-0.275-0.225-0.496-0.506-0.493z"></path>
<path fill="#fec02a" style="fill: var(--color20, #fec02a)" d="M35.493 24.669c-0.105 0-0.183 0-0.26 0-1.352 0-2.704 0-4.056 0-0.198 0-0.2 0-0.193-0.19 0.043-1.034 0.075-2.068 0.138-3.1 0.053-0.844 0.14-1.685 0.218-2.529 0.010-0.108 0.038-0.213 0.063-0.318 0.020-0.083 0.010-0.155-0.083-0.18-0.090-0.025-0.14 0.030-0.163 0.113-0.013 0.048-0.028 0.095-0.048 0.155-0.133-0.025-0.263-0.045-0.388-0.083-0.030-0.010-0.060-0.085-0.055-0.128 0.038-0.406 0.17-0.781 0.378-1.129 0.198-0.331 0.456-0.606 0.789-0.806 0.073-0.045 0.153-0.080 0.245-0.098-0.103 0.148-0.208 0.295-0.311 0.443-0.090 0.128-0.080 0.195 0.060 0.268 0.363 0.185 0.729 0.371 1.097 0.548 0.053 0.025 0.133 0.023 0.193 0.005 0.488-0.145 0.972-0.298 1.457-0.448 0.158-0.048 0.18-0.083 0.148-0.243-0.043-0.2-0.090-0.398-0.135-0.598-0.010-0.043-0.015-0.088-0.025-0.145 0.358 0.048 0.679 0.158 0.972 0.338 0.426 0.26 0.734 0.623 0.936 1.079 0.108 0.243 0.22 0.483 0.336 0.739-0.133 0.058-0.248 0.11-0.366 0.16-0.23 0.098-0.463 0.188-0.691 0.295-0.113 0.053-0.155 0.018-0.19-0.085-0.038-0.115-0.088-0.225-0.133-0.338-0.035-0.088-0.078-0.168-0.19-0.123-0.105 0.043-0.083 0.125-0.053 0.21 0.173 0.461 0.336 0.924 0.521 1.38 0.12 0.295 0.128 0.556-0.058 0.834-0.198 0.303-0.358 0.631-0.531 0.949-0.040 0.073-0.073 0.105-0.163 0.070-0.14-0.055-0.273-0.020-0.378 0.088-0.060 0.063-0.11 0.053-0.173 0.008-0.073-0.055-0.15-0.103-0.228-0.155-0.165-0.115-0.173-0.115-0.358 0.020-0.090-0.098-0.185-0.2-0.278-0.305-0.065-0.075-0.145-0.12-0.223-0.040-0.073 0.073-0.033 0.153 0.033 0.22 0.085 0.085 0.173 0.17 0.253 0.26 0.025 0.028 0.050 0.098 0.038 0.11-0.040 0.038-0.1 0.085-0.148 0.078-0.133-0.015-0.26-0.060-0.391-0.085-0.108-0.023-0.195 0.035-0.173 0.118 0.013 0.053 0.073 0.108 0.125 0.13 0.098 0.040 0.205 0.058 0.313 0.083-0.11 0.17-0.11 0.193 0.028 0.331 0.676 0.676 1.352 1.35 2.028 2.026 0.018 0.013 0.035 0.030 0.073 0.070z"></path>
<path fill="#82acf8" style="fill: var(--color2, #82acf8)" d="M47.675 23.126c-1.152 0.048-2.284 0.135-3.393 0.466 0-0.048-0.002-0.1 0-0.153 0.023-0.603 0.045-1.209 0.068-1.813 0-0.030 0.013-0.068 0-0.085-0.033-0.048-0.075-0.115-0.118-0.118-0.040-0.003-0.11 0.065-0.118 0.11-0.023 0.143-0.025 0.29-0.030 0.436-0.010 0.258-0.015 0.518-0.030 0.776-0.002 0.050-0.033 0.118-0.070 0.145-0.386 0.263-0.774 0.523-1.167 0.774-0.316 0.2-0.659 0.248-1.022 0.153-0.248-0.065-0.498-0.133-0.746-0.198 0-0.015 0-0.030 0-0.045 0.138-0.030 0.275-0.065 0.416-0.093 0.305-0.063 0.305-0.063 0.243-0.366-0.038-0.18-0.075-0.358-0.11-0.538-0.008-0.040-0.013-0.080-0.018-0.113 0.015-0.010 0.020-0.015 0.023-0.015 0.421 0.105 0.741-0.068 1.009-0.371 0.461-0.523 0.904-1.059 1.375-1.575 0.258-0.283 0.548-0.533 0.826-0.796 0.030-0.028 0.068-0.045 0.125-0.083 0.025 0.198 0.050 0.376 0.073 0.556 0.025 0.21 0.048 0.423 0.075 0.634 0.018 0.138 0.108 0.185 0.218 0.103 0.483-0.356 0.967-0.714 1.44-1.082 0.1-0.078 0.173-0.203 0.233-0.318 0.038-0.073 0.063-0.088 0.138-0.065 0.476 0.14 0.856 0.421 1.182 0.786 0.516 0.576 0.821 1.259 1.017 2.001 0.14 0.523 0.288 1.047 0.3 1.595 0.005 0.18-0.018 0.368-0.063 0.543-0.055 0.22-0.2 0.308-0.428 0.308-1.022-0.003-2.046-0.008-3.067-0.008-0.103 0-0.153-0.020-0.163-0.14-0.028-0.346-0.205-0.611-0.476-0.816-0.033-0.025-0.068-0.050-0.1-0.075-0.005-0.005-0.005-0.015-0.015-0.038 0.25-0.038 0.496-0.090 0.741-0.11 0.573-0.045 1.147-0.075 1.723-0.105 0.16-0.010 0.2-0.048 0.173-0.208-0.108-0.606-0.316-1.174-0.611-1.713-0.040-0.075-0.095-0.143-0.188-0.093-0.1 0.053-0.068 0.138-0.025 0.215 0.235 0.441 0.416 0.901 0.531 1.387 0.013 0.035 0.020 0.080 0.030 0.143z"></path>
<path fill="#fff" style="fill: var(--color1, #fff)" d="M28.259 25.868c0-0.068 0-0.128 0-0.203 0.048-0.003 0.093-0.008 0.138-0.008 2.456 0 4.915 0 7.372 0.003 0.068 0 0.138 0.028 0.205 0.035 0.090 0.008 0.18 0.013 0.27 0.008 0.093-0.008 0.185-0.043 0.28-0.043 4.722-0.003 9.447-0.003 14.17-0.003 0.063 0 0.123 0 0.208 0-0.075 0.185-0.138 0.351-0.208 0.513-0.010 0.023-0.050 0.040-0.078 0.048-0.035 0.008-0.075 0.003-0.113 0.003-7.269 0-14.535 0-21.804 0-0.038 0-0.075-0.003-0.113 0-0.078 0.008-0.1-0.033-0.108-0.103-0.025-0.208-0.025-0.208-0.22-0.25z"></path>
<path fill="#19d2c0" style="fill: var(--color21, #19d2c0)" d="M16.238 14.991c0.078 0.165 0.128 0.328 0.22 0.461 0.148 0.213 0.368 0.325 0.631 0.325 0.098 0 0.15 0.040 0.198 0.118 0.283 0.468 0.448 0.977 0.543 1.51 0.080 0.448 0.153 0.896 0.228 1.345 0.003 0.013-0.003 0.023-0.008 0.053-0.854-0.183-1.71-0.185-2.594-0.013 0.015-0.213 0.028-0.403 0.043-0.591 0.018-0.228 0.040-0.456 0.060-0.686 0.008-0.088-0.013-0.168-0.113-0.175s-0.13 0.065-0.138 0.155c-0.038 0.458-0.083 0.914-0.118 1.37-0.015 0.203 0.033 0.24 0.228 0.198 0.846-0.183 1.695-0.198 2.544-0.013 0.195 0.043 0.193 0.045 0.218 0.265-1.362 0-2.722 0-4.101 0 0.020-0.168 0.033-0.331 0.058-0.488 0.098-0.671 0.163-1.352 0.31-2.013 0.205-0.914 0.789-1.515 1.688-1.798 0.040-0.010 0.085-0.018 0.103-0.023z"></path>
<path fill="#fff" style="fill: var(--color1, #fff)" d="M23.717 25.668c-0.11 0.183-0.21 0.348-0.316 0.513-0.013 0.020-0.048 0.033-0.073 0.038-0.033 0.008-0.068 0.003-0.1 0.003-6.751 0-13.501 0-20.252 0.003-0.148 0-0.228-0.038-0.268-0.183-0.035-0.123-0.093-0.24-0.145-0.373 7.051 0 14.090 0 21.153 0z"></path>
<path fill="#fff" style="fill: var(--color1, #fff)" d="M26.441 23.472c-0.155 0-0.311 0.010-0.463-0.003-0.198-0.015-0.398-0.033-0.591-0.080-0.558-0.14-0.894-0.686-0.804-1.254 0.063-0.398 0.113-0.799 0.163-1.199 0.040-0.313 0.243-0.503 0.561-0.506 0.756-0.003 1.51-0.003 2.266 0 0.293 0 0.498 0.165 0.543 0.451 0.073 0.453 0.145 0.904 0.19 1.36 0.063 0.634-0.388 1.137-1.044 1.194-0.273 0.023-0.546 0.038-0.819 0.055-0.003-0.008-0.003-0.013-0.003-0.018zM25.577 21.286c0.188 0 0.356-0.143 0.361-0.323 0.003-0.048-0.053-0.098-0.083-0.148-0.048 0.030-0.118 0.053-0.135 0.095-0.028 0.075-0.048 0.145-0.14 0.15-0.1 0.003-0.12-0.070-0.153-0.15-0.018-0.043-0.088-0.063-0.135-0.095-0.028 0.050-0.083 0.1-0.080 0.148 0.013 0.185 0.175 0.323 0.366 0.323zM27.24 21.286c0.188 0.008 0.353-0.12 0.376-0.308 0.005-0.050-0.035-0.133-0.078-0.155-0.073-0.038-0.125 0.023-0.14 0.095-0.018 0.083-0.053 0.143-0.143 0.143-0.093-0.003-0.113-0.070-0.143-0.145-0.018-0.043-0.088-0.068-0.133-0.098-0.030 0.053-0.085 0.108-0.083 0.158 0.013 0.173 0.165 0.305 0.343 0.311zM26.444 21.586c0.090 0 0.185 0.013 0.273-0.005 0.048-0.010 0.088-0.065 0.13-0.1-0.045-0.040-0.085-0.11-0.133-0.113-0.185-0.013-0.373-0.013-0.561 0-0.045 0.003-0.11 0.060-0.12 0.103-0.020 0.083 0.048 0.113 0.123 0.115 0.098 0 0.193 0 0.288 0z"></path>
<path fill="#d09366" style="fill: var(--color22, #d09366)" d="M24.295 24.966c-0.063 0.133-0.115 0.25-0.175 0.363-0.010 0.020-0.055 0.033-0.085 0.033-0.088 0.005-0.175 0-0.263 0-7.492 0-14.981 0-22.473 0-0.045 0-0.093-0.003-0.138 0-0.070 0.003-0.095-0.030-0.095-0.098 0.005-0.366-0.048-0.298 0.278-0.298 6.528 0 13.053 0 19.581 0 1.072 0 2.146-0.003 3.218-0.003 0.045 0.003 0.085 0.003 0.153 0.003z"></path>
<path fill="#fedcb9" style="fill: var(--color3, #fedcb9)" d="M45.301 15.169c0.368 0.356 0.829 0.423 1.342 0.391-0.013 0.195-0.023 0.388-0.038 0.581-0.028 0.353-0.068 0.706-0.088 1.059-0.023 0.428 0.095 0.824 0.313 1.192 0.023 0.040 0.048 0.078 0.075 0.125-0.293 0.193-0.606 0.311-0.941 0.363-1.395 0.223-2.667-0.664-2.947-2.048-0.025-0.123-0.035-0.248-0.040-0.373-0.002-0.028 0.038-0.078 0.060-0.083 0.899-0.11 1.628-0.536 2.236-1.192 0.002-0.005 0.013-0.008 0.028-0.015zM45.306 17.9c0.093 0 0.215-0.103 0.228-0.27 0.008-0.073-0.013-0.148-0.015-0.223-0.002-0.035 0.008-0.070 0.008-0.105 0-0.010 0.002-0.025 0.002-0.050 0.002-0.080-0.005-0.095-0.013-0.103s-0.020-0.010-0.043-0.015c-0.018-0.003-0.068-0.010-0.12 0.015-0.013 0.005-0.020 0.013-0.023 0.013-0.053 0.038-0.313 0.178-0.573 0.175-0.060 0-0.098 0-0.15-0.013-0.038-0.010-0.073-0.015-0.11-0.025-0.020-0.005-0.048-0.013-0.078-0.008-0.008 0.003-0.023 0.005-0.038 0.015-0.033 0.020-0.040 0.053-0.045 0.065-0.025 0.080 0.023 0.13 0.098 0.148 0.11 0.023 0.22 0.045 0.331 0.050 0.085 0.003 0.133 0.020 0.168 0.105 0.055 0.128 0.143 0.228 0.373 0.225zM46.117 15.87c0.028-0.025 0.095-0.060 0.098-0.095 0-0.048-0.045-0.125-0.088-0.138-0.298-0.085-0.593-0.068-0.876 0.068-0.040 0.020-0.050 0.098-0.075 0.148 0.053 0.023 0.118 0.078 0.153 0.063 0.25-0.105 0.501-0.123 0.789-0.045zM43.591 16.977c0.143 0 0.255-0.108 0.26-0.245 0.005-0.14-0.115-0.265-0.258-0.265s-0.263 0.12-0.26 0.263c0.005 0.138 0.115 0.248 0.258 0.248zM46.032 16.573c0-0.148-0.113-0.255-0.265-0.253-0.14 0.003-0.253 0.118-0.253 0.255 0.002 0.143 0.12 0.255 0.268 0.253 0.143-0.003 0.25-0.113 0.25-0.255z"></path>
<path fill="#19d2c0" style="fill: var(--color21, #19d2c0)" d="M19.112 16.090c0.065 0.16 0.135 0.32 0.198 0.483 0.25 0.656 0.411 1.337 0.531 2.028 0.008 0.040 0.015 0.083 0.025 0.123 0.015 0.080 0.058 0.135 0.145 0.12 0.093-0.018 0.11-0.090 0.093-0.175-0.038-0.195-0.073-0.393-0.113-0.588-0.148-0.729-0.358-1.44-0.669-2.118-0.010-0.023-0.015-0.053-0.033-0.068-0.225-0.185-0.093-0.396-0.045-0.616 0.208 0.138 0.366 0.31 0.506 0.501 0.346 0.468 0.518 1.007 0.608 1.572 0.095 0.608 0.16 1.222 0.238 1.833 0.005 0.040 0.005 0.080 0.008 0.133-0.050 0.003-0.090 0.008-0.13 0.008-0.628 0-1.259-0.003-1.888 0.003-0.103 0-0.15-0.030-0.168-0.13-0.105-0.578-0.21-1.157-0.323-1.733-0.053-0.27-0.123-0.536-0.188-0.804-0.015-0.063-0.030-0.11 0.050-0.14 0.366-0.14 0.731-0.283 1.097-0.423 0.010-0.003 0.028-0.003 0.058-0.008z"></path>
<path fill="#d09269" style="fill: var(--color5, #d09269)" d="M36.472 24.951c0.068 0.023 0.148 0.033 0.205 0.073 0.2 0.138 0.368 0.138 0.561-0.010 0.033-0.025 0.080-0.040 0.123-0.045 0.053-0.008 0.108-0.003 0.163-0.003 4.878 0 9.755 0 14.63 0 0.16 0 0.16 0 0.16 0.168 0 0.26 0.028 0.23-0.223 0.23-5.115 0-10.231 0-15.344 0-0.208 0-0.208 0-0.258-0.198-0.015-0.058-0.028-0.118-0.040-0.178 0.008-0.013 0.015-0.025 0.023-0.038z"></path>
<path fill="#dc926d" style="fill: var(--color11, #dc926d)" d="M36.364 22.753c-0.090-0.135-0.193-0.218-0.346-0.228-0.025-0.003-0.058-0.043-0.073-0.073-0.060-0.11-0.148-0.175-0.27-0.2-0.038-0.008-0.080-0.023-0.108-0.050-0.098-0.090-0.188-0.185-0.298-0.298 0.090-0.16 0.2-0.353 0.308-0.548 0.145-0.263 0.285-0.528 0.431-0.791 0.078-0.143 0.103-0.285 0.048-0.443-0.105-0.295-0.198-0.593-0.305-0.886-0.035-0.095-0.020-0.138 0.078-0.178 0.325-0.13 0.646-0.27 0.969-0.406 0.033-0.015 0.068-0.025 0.118-0.043 0.085 0.22 0.175 0.431 0.245 0.648 0.098 0.298 0.178 0.598 0.265 0.899 0.080 0.278 0.030 0.543-0.070 0.806-0.195 0.508-0.468 0.977-0.759 1.435-0.078 0.115-0.153 0.23-0.233 0.356z"></path>
<path fill="#fff" style="fill: var(--color1, #fff)" d="M40.353 20.212c0.22 1.047 0.436 2.076 0.656 3.122-0.478 0.1-0.949 0.2-1.435 0.303-0.025-0.113-0.053-0.215-0.070-0.32-0.002-0.018 0.023-0.050 0.043-0.065 0.19-0.145 0.228-0.273 0.148-0.488-0.013-0.033-0.002-0.085 0.018-0.118 0.11-0.17 0.105-0.311-0.018-0.471-0.023-0.030-0.035-0.080-0.030-0.118 0.038-0.208-0.018-0.333-0.195-0.443-0.028-0.018-0.058-0.058-0.060-0.090-0.018-0.213-0.093-0.305-0.29-0.371-0.035-0.013-0.075-0.053-0.085-0.085-0.045-0.178-0.078-0.356-0.12-0.553 0.481-0.1 0.949-0.2 1.44-0.303z"></path>
<path fill="#d09269" style="fill: var(--color5, #d09269)" d="M35.711 25.365c-0.070 0-0.118 0-0.168 0-2.379 0-4.757 0-7.134 0.003-0.12 0-0.15-0.038-0.148-0.15 0.013-0.29-0.040-0.25 0.255-0.25 2.299 0 4.597 0 6.898 0 0.22 0 0.183-0.030 0.245 0.19 0.015 0.060 0.028 0.12 0.050 0.208z"></path>
<path fill="#fedcb9" style="fill: var(--color3, #fedcb9)" d="M18.97 15.87c-0.398 0.155-0.786 0.305-1.177 0.458-0.093-0.175-0.168-0.353-0.278-0.508-0.138-0.195-0.303-0.373-0.463-0.551-0.048-0.053-0.090-0.095-0.035-0.158 0.058-0.065 0.12-0.040 0.17 0.018 0.028 0.033 0.053 0.065 0.080 0.095 0.053 0.060 0.115 0.068 0.175 0.015s0.063-0.115 0.013-0.178c-0.048-0.058-0.1-0.113-0.15-0.168-0.048-0.055-0.108-0.115-0.033-0.18s0.138-0.010 0.19 0.053c0.040 0.048 0.078 0.105 0.128 0.135 0.040 0.023 0.13 0.033 0.148 0.010 0.028-0.038 0.038-0.118 0.015-0.16-0.035-0.068-0.11-0.115-0.148-0.183-0.023-0.040-0.008-0.1-0.010-0.153 0.053 0.008 0.11 0.002 0.153 0.025 0.045 0.025 0.075 0.078 0.11 0.118 0.055 0.065 0.123 0.098 0.193 0.033s0.040-0.135-0.018-0.198c-0.185-0.203-0.371-0.406-0.556-0.611-0.020-0.023-0.050-0.043-0.055-0.065-0.008-0.040-0.013-0.1 0.010-0.123s0.085-0.023 0.123-0.013c0.033 0.010 0.058 0.048 0.083 0.075 0.265 0.283 0.531 0.566 0.801 0.844 0.038 0.038 0.123 0.080 0.155 0.065 0.045-0.023 0.078-0.098 0.090-0.158 0.020-0.098 0.023-0.198 0.028-0.298 0.005-0.073 0.033-0.138 0.108-0.115 0.040 0.013 0.090 0.088 0.090 0.133-0.008 0.203-0.035 0.406-0.045 0.611-0.003 0.075 0.010 0.158 0.043 0.223 0.1 0.195 0.128 0.391 0.003 0.581-0.068 0.103 0 0.173 0.033 0.253 0.008 0.020 0.013 0.040 0.028 0.075z"></path>
<path fill="#dc926d" style="fill: var(--color11, #dc926d)" d="M30.625 18.789c0.133 0.028 0.26 0.045 0.381 0.083 0.025 0.008 0.053 0.078 0.048 0.115-0.030 0.353-0.070 0.706-0.1 1.059-0.035 0.441-0.070 0.881-0.093 1.322-0.048 0.916-0.088 1.833-0.128 2.749-0.008 0.143-0.013 0.283-0.015 0.426 0 0.095-0.038 0.138-0.135 0.13-0.083-0.005-0.168-0.005-0.25 0-0.098 0.005-0.133-0.033-0.128-0.133 0.023-0.323 0.040-0.648 0.063-0.974 0.030-0.436 0.060-0.874 0.093-1.31 0.058-0.786 0.113-1.57 0.17-2.356 0.025-0.333 0.053-0.666 0.078-0.997 0.005-0.035 0.013-0.068 0.018-0.115z"></path>
<path fill="#fff" style="fill: var(--color1, #fff)" d="M36.182 23.311c0.12 0.083 0.248 0.163 0.368 0.253 0.125 0.095 0.148 0.26 0.045 0.388-0.155 0.195-0.316 0.388-0.478 0.578-0.108 0.123-0.275 0.133-0.388 0.020-0.711-0.704-1.417-1.412-2.126-2.118-0.008-0.008-0.013-0.020-0.028-0.043 0.145-0.175 0.293-0.356 0.446-0.541 0.055 0.038 0.103 0.070 0.153 0.098 0.103 0.058 0.165 0.115 0.128 0.26-0.045 0.173 0.055 0.311 0.23 0.378 0.058 0.023 0.080 0.050 0.083 0.115 0.013 0.198 0.12 0.3 0.321 0.338 0.038 0.008 0.080 0.038 0.1 0.070 0.108 0.18 0.235 0.24 0.438 0.2 0.028-0.005 0.068-0.008 0.090 0.008 0.283 0.205 0.351 0.208 0.618-0.005z"></path>
<path fill="#d2d0a0" style="fill: var(--color13, #d2d0a0)" d="M44.262 19.303c-0.526-0.048-0.959-0.268-1.3-0.666-0.288-0.338-0.436-0.736-0.446-1.179-0.008-0.326-0.002-0.651-0.002-0.974 0-0.025 0.008-0.048 0.013-0.080 0.063 0 0.123 0 0.188 0 0.030 0.19 0.048 0.376 0.088 0.556 0.185 0.809 0.644 1.417 1.36 1.83 0.093 0.053 0.133 0.11 0.123 0.215-0.010 0.088-0.005 0.175-0.005 0.263 0 0.003-0.008 0.010-0.018 0.035z"></path>
<path fill="#fedcb9" style="fill: var(--color3, #fedcb9)" d="M45.301 20.615c-0.060-0.498-0.118-0.984-0.178-1.492 0.563 0.073 1.089-0.005 1.595-0.23 0.123 0.463 0.088 0.611-0.24 0.859-0.361 0.273-0.726 0.543-1.089 0.816-0.023 0.015-0.045 0.025-0.088 0.048z"></path>
<path fill="#d6d3cc" style="fill: var(--color23, #d6d3cc)" d="M12.825 19.613c0 1.577 0.002 3.145-0.005 4.71 0 0.095-0.048 0.198-0.098 0.285-0.023 0.040-0.098 0.050-0.148 0.073-0.015-0.048-0.040-0.095-0.040-0.143-0.002-1.325-0.002-2.652-0.002-3.976 0-0.233 0-0.466 0-0.701 0.002-0.205 0.083-0.273 0.293-0.248z"></path>
<path fill="#dc926d" style="fill: var(--color11, #dc926d)" d="M32.631 15.662c0.183 0.028 0.336 0.048 0.486 0.070 0.333 0.048 0.666 0.023 0.994-0.043 0.098-0.020 0.123 0.008 0.128 0.103 0.005 0.123-0.025 0.22-0.113 0.316-0.338 0.368-0.669 0.744-1.004 1.114-0.013 0.015-0.033 0.025-0.063 0.048-0.030-0.088-0.058-0.165-0.083-0.243-0.1-0.293-0.208-0.581-0.293-0.876-0.040-0.15-0.035-0.316-0.053-0.488z"></path>
<path fill="#fec02a" style="fill: var(--color20, #fec02a)" d="M6.783 20.407c0.265 0.363 0.521 0.724 0.789 1.074 0.188 0.243 0.396 0.473 0.598 0.706 0.1 0.113 0.173 0.113 0.268-0.005 0.411-0.501 0.806-1.012 1.129-1.575 0.065-0.115 0.12-0.235 0.185-0.366 0.263 0.135 0.491 0.308 0.694 0.513 0.563 0.571 0.836 1.267 0.856 2.063 0.010 0.371 0.002 0.744 0 1.114 0 0.033-0.005 0.065-0.008 0.108-0.118 0-0.23 0-0.341 0-0.085 0-0.085-0.060-0.088-0.12-0.008-0.316-0.005-0.634-0.033-0.949-0.018-0.21-0.078-0.416-0.125-0.621-0.018-0.075-0.083-0.11-0.155-0.085-0.080 0.025-0.11 0.090-0.083 0.17 0.153 0.441 0.128 0.896 0.135 1.35 0 0.020 0 0.043 0 0.063 0 0.21-0.013 0.22-0.225 0.188-0.028-0.11-0.045-0.22-0.078-0.328-0.145-0.478-0.493-0.686-0.972-0.756-0.804-0.118-1.535 0.103-2.246 0.443-0.188 0.090-0.376 0.178-0.578 0.275 0-0.16-0.013-0.303 0.003-0.443 0.023-0.198 0.025-0.401 0.148-0.573 0.020-0.030 0.003-0.128-0.025-0.14-0.048-0.023-0.13-0.028-0.168 0-0.055 0.043-0.105 0.118-0.115 0.185-0.050 0.313-0.095 0.626-0.118 0.939-0.010 0.123-0.043 0.19-0.16 0.228-0.135 0.043-0.265 0.098-0.401 0.145-0.095 0.035-0.168 0.085-0.133 0.2 0.028 0.090 0.11 0.123 0.228 0.073 0.511-0.218 1.017-0.443 1.525-0.659 0.26-0.11 0.523-0.21 0.796-0.305-0.278 0.476-0.243 0.911 0.115 1.34-0.040 0.005-0.070 0.013-0.1 0.013-0.909 0-1.82 0-2.729 0-0.168 0-0.17 0-0.165-0.163 0.013-0.441-0.008-0.889 0.050-1.325 0.14-1.077 0.601-1.996 1.437-2.709 0.030-0.033 0.070-0.055 0.088-0.068z"></path>
<path fill="#fedcb9" style="fill: var(--color3, #fedcb9)" d="M9.663 24.063c-0.223 0-0.406 0-0.588 0s-0.218 0.035-0.215 0.22c0 0.065 0.002 0.133 0.015 0.198 0.010 0.060 0.035 0.118 0.058 0.185-0.238 0.033-0.423-0.058-0.573-0.22-0.218-0.235-0.275-0.513-0.145-0.811 0.125-0.288 0.356-0.453 0.674-0.451 0.228 0.003 0.458 0.025 0.679 0.075 0.338 0.075 0.463 0.353 0.538 0.656 0.010 0.038-0.033 0.113-0.073 0.133-0.065 0.035-0.13 0.010-0.16-0.070-0.030-0.083-0.055-0.165-0.090-0.245-0.023-0.053-0.058-0.1-0.098-0.145-0.048-0.055-0.118-0.068-0.16-0.008-0.025 0.035-0.028 0.108-0.013 0.153 0.038 0.105 0.090 0.2 0.153 0.331z"></path>
<path fill="#fedcb9" style="fill: var(--color3, #fedcb9)" d="M7.439 19.45c0.511 0.268 1.054 0.353 1.618 0.298 0.073 0.283-0.075 0.618-0.341 0.799-0.288 0.195-0.694 0.193-0.977-0.015-0.331-0.243-0.408-0.573-0.3-1.082z"></path>
<path fill="#fff" style="fill: var(--color1, #fff)" d="M8.295 21.969c-0.205-0.245-0.408-0.468-0.586-0.706-0.223-0.295-0.433-0.601-0.636-0.911-0.1-0.153-0.083-0.175 0.108-0.233 0.178 0.518 0.536 0.811 1.089 0.794 0.558-0.015 0.891-0.341 1.032-0.874 0.023 0.005 0.038 0.008 0.053 0.010 0.178 0.053 0.183 0.058 0.1 0.23-0.245 0.511-0.588 0.956-0.931 1.402-0.065 0.090-0.138 0.178-0.228 0.288z"></path>
<path fill="#fff" style="fill: var(--color1, #fff)" d="M24.776 25.865c0.078-0.21 0.078-0.21 0.28-0.21 0.731 0 1.46 0 2.191 0 0.055 0 0.108 0 0.158 0 0.055 0.168 0.040 0.183-0.095 0.24-0.048 0.020-0.093 0.105-0.095 0.163-0.008 0.12-0.045 0.163-0.173 0.16-0.669-0.008-1.335-0.003-2.003-0.003-0.045 0-0.090 0-0.153 0 0.045-0.15 0.108-0.3-0.11-0.351z"></path>
<path fill="#467eda" style="fill: var(--color8, #467eda)" d="M10.729 20.627c-0.23-0.178-0.438-0.358-0.669-0.503-0.228-0.145-0.478-0.253-0.759-0.398 0.593-0.153 1.082-0.431 1.49-0.886 0.14 0.616 0.105 1.202-0.063 1.788z"></path>
<path fill="#d3d3d3" style="fill: var(--color24, #d3d3d3)" d="M12.254 24.341c0 0.113 0 0.22 0 0.338-0.048 0.003-0.088 0.010-0.128 0.010-0.879 0-1.76 0-2.639 0-0.208 0-0.353-0.14-0.353-0.346 1.037-0.003 2.071-0.003 3.12-0.003z"></path>
<path fill="#fedcb9" style="fill: var(--color3, #fedcb9)" d="M45.661 24.679c-0.278 0-0.541 0-0.814 0 0.020-0.12 0.1-0.17 0.19-0.203 0.085-0.030 0.15-0.078 0.11-0.173-0.043-0.098-0.128-0.073-0.203-0.043-0.133 0.053-0.235 0.138-0.3 0.268-0.090 0.18-0.093 0.18-0.313 0.143 0.020-0.17 0.1-0.3 0.235-0.401 0.023-0.018 0.060-0.023 0.073-0.045 0.028-0.048 0.070-0.11 0.058-0.155-0.020-0.078-0.095-0.083-0.165-0.050-0.215 0.103-0.348 0.278-0.416 0.506-0.055 0.18-0.055 0.18-0.27 0.145 0.015-0.078 0.023-0.16 0.048-0.235 0.145-0.441 0.491-0.641 0.909-0.749 0.020-0.005 0.043-0.003 0.063 0.003 0.348 0.073 0.719 0.451 0.784 0.801 0.015 0.058 0.010 0.118 0.013 0.188z"></path>
<path fill="#fff" style="fill: var(--color1, #fff)" d="M24.521 23.099c0.025 0.023 0.043 0.033 0.055 0.048 0.228 0.298 0.528 0.473 0.899 0.541 0.033 0.005 0.078 0.063 0.078 0.095 0.003 0.346 0.045 0.273-0.265 0.283-0.128 0.005-0.258 0.010-0.383 0.030-0.145 0.023-0.248 0.113-0.305 0.248-0.018 0.038-0.035 0.075-0.053 0.113-0.12 0.268-0.125 0.27-0.406 0.225 0.125-0.521 0.253-1.047 0.381-1.582z"></path>
<path fill="#d09269" style="fill: var(--color5, #d09269)" d="M25.012 25.357c0.063-0.13 0.11-0.243 0.17-0.351 0.015-0.025 0.070-0.040 0.108-0.040 0.676-0.003 1.35 0 2.026-0.003 0.073 0 0.108 0.020 0.108 0.098-0.003 0.371 0.035 0.295-0.28 0.298-0.664 0.005-1.325 0.003-1.988 0-0.040 0.005-0.080 0-0.143-0.003z"></path>
<path fill="#d2dce6" style="fill: var(--color7, #d2dce6)" d="M41.48 23.231c-0.083 0.018-0.155 0.033-0.245 0.050-0.218-1.039-0.433-2.071-0.651-3.105 0.033-0.013 0.053-0.020 0.070-0.025 0.183-0.040 0.183-0.040 0.22 0.145 0.2 0.951 0.398 1.905 0.598 2.857 0.005 0.020 0.005 0.043 0.008 0.078z"></path>
<path fill="#54aee2" style="fill: var(--color25, #54aee2)" d="M24.28 25.628c0.018-0.045 0.030-0.083 0.048-0.12 0.158-0.346 0.311-0.691 0.476-1.032 0.028-0.060 0.093-0.123 0.153-0.138 0.113-0.030 0.195 0.080 0.15 0.198-0.058 0.148-0.125 0.29-0.193 0.433-0.103 0.223-0.208 0.443-0.305 0.671-0.040 0.098-0.090 0.118-0.178 0.065-0.045-0.030-0.095-0.050-0.15-0.078z"></path>
<path fill="#54aee2" style="fill: var(--color25, #54aee2)" d="M27.706 25.152c0-0.19 0-0.383 0-0.573 0-0.040-0.005-0.093 0.015-0.12 0.033-0.048 0.088-0.11 0.13-0.108 0.040 0 0.080 0.075 0.118 0.12 0.008 0.008 0.008 0.025 0.008 0.035 0 0.428 0.003 0.856 0 1.287 0 0.12-0.095 0.078-0.155 0.085-0.070 0.008-0.12-0.005-0.12-0.098 0.008-0.213 0.005-0.421 0.005-0.628z"></path>
<path fill="#fff" style="fill: var(--color1, #fff)" d="M34.476 16.969c-0.358 0.108-0.699 0.213-1.039 0.316-0.008-0.008-0.015-0.018-0.020-0.025 0.29-0.323 0.583-0.646 0.896-0.997 0.058 0.248 0.108 0.468 0.163 0.706z"></path>
<path fill="#fff" style="fill: var(--color1, #fff)" d="M32.002 16.904c0.155-0.213 0.298-0.411 0.461-0.636 0.118 0.351 0.228 0.674 0.338 0.997-0.008 0.008-0.018 0.015-0.025 0.023-0.25-0.125-0.501-0.248-0.774-0.383z"></path>
<path fill="#54aee2" style="fill: var(--color25, #54aee2)" d="M28.893 27.886c-0.451 0-0.876 0-1.342 0 0.218-0.155 0.411-0.29 0.648-0.32 0.14-0.018 0.29-0.013 0.428 0.020 0.133 0.030 0.213 0.145 0.265 0.3z"></path>
<path fill="#54aee2" style="fill: var(--color25, #54aee2)" d="M22.62 27.090c0.175-0.18 0.368-0.22 0.568-0.13 0.3 0.133 0.483 0.381 0.659 0.691-0.426-0.195-0.821-0.376-1.227-0.561z"></path>
<path fill="#fbba9f" style="fill: var(--color26, #fbba9f)" d="M13.656 11.796c0.175 0.336 0.343 0.656 0.511 0.977-0.13 0.058-0.356-0.038-0.486-0.195-0.185-0.23-0.203-0.541-0.025-0.781z"></path>
<path fill="#fff" style="fill: var(--color1, #fff)" d="M26.431 19.468c-0.163-0.003-0.288-0.13-0.285-0.298 0-0.16 0.133-0.293 0.293-0.295 0.16 0 0.3 0.145 0.295 0.305-0.008 0.163-0.14 0.29-0.303 0.288z"></path>
<path fill="#54aee2" style="fill: var(--color25, #54aee2)" d="M24.441 21.156c-0.048 0.353-0.093 0.694-0.14 1.049-0.135-0.065-0.198-0.163-0.205-0.29-0.008-0.15-0.008-0.3 0.003-0.448 0.010-0.18 0.148-0.303 0.343-0.311z"></path>
<path fill="#ffbe9f" style="fill: var(--color27, #ffbe9f)" d="M19.843 11.939c0.068-0.368 0.133-0.716 0.198-1.067 0.165 0.108 0.258 0.348 0.215 0.563-0.045 0.235-0.173 0.406-0.413 0.503z"></path>
<path fill="#d3c0b1" style="fill: var(--color28, #d3c0b1)" d="M16.936 15.492c-0.305-0.055-0.468-0.393-0.416-0.846 0.16 0 0.318 0 0.483 0 0.008 0.113 0 0.19-0.105 0.258-0.185 0.115-0.195 0.366-0.038 0.516 0.023 0.023 0.045 0.043 0.075 0.073z"></path>
<path fill="#54aee2" style="fill: var(--color25, #54aee2)" d="M28.575 22.172c-0.048-0.331-0.093-0.664-0.138-0.994 0.14-0.030 0.3 0.085 0.316 0.245 0.018 0.18 0.015 0.366-0.003 0.548-0.008 0.075-0.080 0.145-0.123 0.215-0.018-0.005-0.035-0.010-0.053-0.015z"></path>
<path fill="#fff" style="fill: var(--color1, #fff)" d="M39.372 19.012c-0.002 0.143-0.125 0.26-0.27 0.258-0.143-0.003-0.263-0.128-0.255-0.27 0.005-0.135 0.125-0.25 0.263-0.25 0.143 0 0.265 0.125 0.263 0.263z"></path>
<path fill="#fff" style="fill: var(--color1, #fff)" d="M36.434 24.503c0.070-0.083 0.13-0.155 0.2-0.24 0.148 0.123 0.295 0.23 0.423 0.361 0.035 0.038 0.038 0.145 0.010 0.198-0.040 0.078-0.13 0.088-0.205 0.030-0.14-0.108-0.275-0.223-0.428-0.348z"></path>
<path fill="#fff" style="fill: var(--color1, #fff)" d="M23.031 24.701c-0.083 0-0.17 0.015-0.248-0.005-0.050-0.013-0.088-0.078-0.133-0.12 0.043-0.043 0.080-0.12 0.125-0.125 0.173-0.015 0.348-0.015 0.521 0 0.045 0.005 0.113 0.073 0.123 0.12 0.018 0.083-0.050 0.125-0.13 0.128-0.085 0.008-0.173 0.005-0.258 0.003 0 0 0 0 0 0z"></path>
<path fill="#fff" style="fill: var(--color1, #fff)" d="M36.88 23.614c0.178 0.015 0.351 0.025 0.521 0.040 0.090 0.008 0.135 0.068 0.135 0.15 0 0.090-0.058 0.155-0.148 0.155-0.168 0-0.338-0.020-0.511-0.030 0.002-0.108 0.002-0.2 0.002-0.316z"></path>
<path fill="#fff" style="fill: var(--color1, #fff)" d="M35.836 24.869c0.108-0.020 0.203-0.035 0.308-0.053 0.043 0.163 0.090 0.326 0.128 0.488 0.020 0.090-0.025 0.158-0.113 0.183-0.090 0.025-0.16-0.018-0.185-0.105-0.053-0.168-0.093-0.338-0.138-0.513z"></path>
<path fill="#fedcb9" style="fill: var(--color3, #fedcb9)" d="M38.891 22.175c-0.030-0.030-0.095-0.068-0.1-0.11s0.043-0.12 0.083-0.135c0.135-0.048 0.278-0.083 0.421-0.1 0.045-0.005 0.123 0.048 0.143 0.093 0.013 0.030-0.040 0.123-0.083 0.135-0.138 0.050-0.288 0.075-0.463 0.118z"></path>
<path fill="#fedcb9" style="fill: var(--color3, #fedcb9)" d="M39.447 22.29c0.030 0.028 0.098 0.063 0.098 0.1 0.002 0.048-0.038 0.13-0.078 0.143-0.14 0.048-0.288 0.080-0.436 0.1-0.043 0.005-0.12-0.053-0.13-0.095-0.010-0.038 0.043-0.12 0.083-0.133 0.143-0.048 0.29-0.075 0.463-0.115z"></path>
<path fill="#dc926d" style="fill: var(--color11, #dc926d)" d="M30.222 13.038c-0.29-0.208-0.323-0.704-0.050-0.957 0.018 0.318 0.035 0.639 0.050 0.957z"></path>
<path fill="#dc926d" style="fill: var(--color11, #dc926d)" d="M35.21 22.22c0.088 0 0.148 0.093 0.105 0.16-0.080 0.13-0.168 0.255-0.265 0.373-0.023 0.028-0.108 0.038-0.14 0.018-0.030-0.020-0.058-0.105-0.040-0.133 0.095-0.14 0.203-0.27 0.308-0.403 0.008-0.010 0.028-0.013 0.033-0.015z"></path>
<path fill="#dc926d" style="fill: var(--color11, #dc926d)" d="M35.736 22.603c-0.018 0.043-0.025 0.073-0.043 0.095-0.075 0.11-0.153 0.22-0.23 0.328-0.043 0.058-0.098 0.080-0.163 0.033-0.060-0.045-0.068-0.1-0.023-0.163 0.080-0.113 0.155-0.228 0.24-0.336 0.025-0.030 0.088-0.050 0.128-0.043 0.035 0.005 0.063 0.055 0.090 0.085z"></path>
<path fill="#fedcb9" style="fill: var(--color3, #fedcb9)" d="M38.781 21.699c-0.030-0.033-0.098-0.070-0.1-0.113-0.002-0.045 0.043-0.12 0.085-0.14 0.080-0.038 0.175-0.060 0.265-0.060 0.048 0 0.125 0.050 0.135 0.090s-0.035 0.123-0.078 0.143c-0.088 0.040-0.185 0.050-0.308 0.080z"></path>
<path fill="#fedcb9" style="fill: var(--color3, #fedcb9)" d="M39.104 23.131c-0.033-0.038-0.093-0.075-0.1-0.12-0.005-0.040 0.040-0.11 0.080-0.128 0.085-0.038 0.183-0.063 0.275-0.068 0.043-0.003 0.115 0.045 0.128 0.083 0.013 0.040-0.023 0.123-0.058 0.14-0.090 0.043-0.195 0.058-0.325 0.093z"></path>
<path fill="#dc926d" style="fill: var(--color11, #dc926d)" d="M36.144 22.918c-0.083 0.103-0.158 0.203-0.243 0.293-0.015 0.015-0.085 0.005-0.108-0.018-0.025-0.028-0.048-0.090-0.033-0.118 0.050-0.093 0.113-0.183 0.183-0.263 0.020-0.023 0.088-0.023 0.123-0.010 0.030 0.013 0.043 0.063 0.078 0.115z"></path>
<path fill="#dc926d" style="fill: var(--color11, #dc926d)" d="M34.942 22.037c0.002 0.108-0.215 0.333-0.3 0.32-0.033-0.005-0.078-0.030-0.088-0.055-0.013-0.038-0.010-0.098 0.013-0.125 0.055-0.073 0.123-0.138 0.193-0.193 0.030-0.023 0.088-0.023 0.128-0.013 0.028 0.008 0.045 0.050 0.055 0.065z"></path>
<path fill="#fff" style="fill: var(--color1, #fff)" d="M22.423 24.451c0 0.083 0 0.15 0 0.258-0.103-0.023-0.195-0.038-0.28-0.070-0.015-0.005-0.020-0.103 0.005-0.13 0.070-0.098 0.175-0.063 0.275-0.058z"></path>
<path fill="#3e87bc" style="fill: var(--color29, #3e87bc)" d="M7.054 19.871c0.013-0.21 0.023-0.398 0.033-0.591 0.11 0.053 0.098 0.501-0.033 0.591z"></path>
<path fill="#ffc001" style="fill: var(--color30, #ffc001)" d="M40.821 18.794c0-0.178-0.002-0.358 0.005-0.536 0-0.025 0.068-0.073 0.085-0.065 0.25 0.11 0.393 0.013 0.471-0.23 0.002-0.010 0.018-0.015 0.038-0.035-0.018 0.203-0.028 0.393-0.055 0.578-0.005 0.035-0.068 0.063-0.103 0.090-0.005 0.005-0.018 0-0.025 0-0.178-0.018-0.356-0.038-0.416 0.198z"></path>
<path fill="#1b4f7f" style="fill: var(--color15, #1b4f7f)" d="M17.122 21.586c0.278 0 0.506 0.22 0.506 0.493 0 0.275-0.225 0.501-0.501 0.501-0.278 0-0.501-0.218-0.506-0.496-0.005-0.27 0.223-0.498 0.501-0.498zM17.124 21.832c-0.14 0-0.258 0.115-0.258 0.253 0 0.135 0.12 0.25 0.26 0.25 0.138 0.003 0.255-0.115 0.255-0.253s-0.115-0.25-0.258-0.25z"></path>
<path fill="#1b4f7f" style="fill: var(--color15, #1b4f7f)" d="M45.133 12.672c0.381 0 0.721 0.11 1.017 0.356 0.065 0.055 0.123 0.115 0.053 0.198-0.068 0.080-0.135 0.035-0.195-0.015-0.263-0.225-0.576-0.308-0.916-0.31-0.043 0-0.090 0.010-0.123-0.005-0.045-0.023-0.078-0.068-0.115-0.105 0.040-0.040 0.073-0.093 0.12-0.113 0.045-0.020 0.105-0.005 0.16-0.005z"></path>
<path fill="#1c4f84" style="fill: var(--color18, #1c4f84)" d="M32.263 12.439c0 0.138-0.098 0.188-0.208 0.128-0.21-0.113-0.431-0.153-0.664-0.118-0.103 0.015-0.2 0.050-0.3 0.083-0.085 0.030-0.153 0.018-0.185-0.068-0.030-0.083 0.015-0.135 0.090-0.168 0.401-0.17 0.794-0.16 1.177 0.050 0.043 0.023 0.070 0.070 0.090 0.093z"></path>
<path fill="#1c4f84" style="fill: var(--color18, #1c4f84)" d="M34.319 12.212c0.23 0.028 0.443 0.075 0.641 0.185 0.078 0.043 0.128 0.103 0.078 0.193-0.048 0.085-0.123 0.070-0.195 0.033-0.308-0.158-0.621-0.173-0.941-0.043-0.083 0.033-0.163 0.040-0.2-0.053-0.043-0.103 0.028-0.158 0.115-0.183 0.168-0.050 0.336-0.090 0.503-0.133z"></path>
<path fill="#1c4f84" style="fill: var(--color18, #1c4f84)" d="M32.959 14.13c-0.143-0.048-0.293-0.090-0.436-0.145-0.073-0.028-0.108-0.098-0.065-0.175s0.113-0.083 0.183-0.045c0.228 0.125 0.458 0.093 0.689 0.015 0.020-0.008 0.040-0.015 0.060-0.020 0.080-0.028 0.153-0.023 0.185 0.068 0.035 0.093-0.023 0.148-0.1 0.17-0.163 0.048-0.328 0.085-0.516 0.133z"></path>
<path fill="#1c4f84" style="fill: var(--color18, #1c4f84)" d="M34.329 13.323c-0.16 0.002-0.288-0.118-0.293-0.278-0.005-0.165 0.123-0.298 0.285-0.3 0.158-0.002 0.295 0.135 0.295 0.293-0.002 0.16-0.128 0.283-0.288 0.285z"></path>
<path fill="#1c4f84" style="fill: var(--color18, #1c4f84)" d="M31.256 13.035c0.003-0.16 0.14-0.295 0.298-0.288 0.155 0.005 0.283 0.138 0.283 0.293 0 0.16-0.135 0.29-0.298 0.285-0.16-0.005-0.283-0.133-0.283-0.29z"></path>
<path fill="#fdbcaa" style="fill: var(--color31, #fdbcaa)" d="M18.567 12.657c0 0.201-0.163 0.363-0.363 0.363s-0.363-0.163-0.363-0.363c0-0.201 0.163-0.363 0.363-0.363s0.363 0.163 0.363 0.363z"></path>
<path fill="#1b4f7f" style="fill: var(--color15, #1b4f7f)" d="M18.033 12.414c0.020 0.018 0.088 0.053 0.1 0.1 0.023 0.083-0.038 0.125-0.12 0.135-0.218 0.023-0.406 0.108-0.558 0.27-0.028 0.030-0.12 0.035-0.16 0.013-0.070-0.040-0.055-0.113-0.003-0.17 0.183-0.213 0.418-0.325 0.741-0.348z"></path>
<path fill="#1b4f7f" style="fill: var(--color15, #1b4f7f)" d="M15.787 12.52c-0.145 0-0.253-0.108-0.25-0.253 0.002-0.138 0.108-0.243 0.245-0.245 0.14-0.002 0.253 0.113 0.25 0.253 0 0.138-0.108 0.243-0.245 0.245z"></path>
<path fill="#1b4f7f" style="fill: var(--color15, #1b4f7f)" d="M18.123 11.671c0.138 0.002 0.24 0.108 0.24 0.248 0 0.143-0.11 0.253-0.253 0.248-0.138-0.002-0.243-0.113-0.243-0.248 0-0.143 0.11-0.25 0.255-0.248z"></path>
<path fill="#1b4f7f" style="fill: var(--color15, #1b4f7f)" d="M8.463 18.098c0.418 0.028 0.826 0.055 1.237 0.083 0.002 0.326-0.316 0.608-0.643 0.591-0.358-0.020-0.639-0.328-0.593-0.674z"></path>
<path fill="#1b4f7f" style="fill: var(--color15, #1b4f7f)" d="M7.955 16.904c0.238 0 0.423 0.183 0.411 0.391-0.002 0.053-0.055 0.128-0.103 0.143-0.075 0.023-0.118-0.043-0.128-0.118-0.010-0.090-0.038-0.168-0.14-0.175-0.108-0.008-0.145 0.068-0.18 0.155-0.018 0.040-0.085 0.088-0.128 0.088-0.078-0.003-0.173-0.020-0.223-0.073-0.053-0.055-0.015-0.128 0.070-0.163 0.048-0.020 0.098-0.053 0.133-0.090 0.088-0.095 0.188-0.153 0.288-0.158z"></path>
<path fill="#1b4f7f" style="fill: var(--color15, #1b4f7f)" d="M10.354 17.059c0.135 0.013 0.248 0.073 0.328 0.2 0.028 0.045 0.073 0.083 0.118 0.113 0.073 0.050 0.105 0.123 0.038 0.173-0.053 0.040-0.148 0.043-0.218 0.033-0.043-0.005-0.095-0.063-0.108-0.105-0.028-0.090-0.058-0.17-0.165-0.173-0.103-0.003-0.145 0.070-0.165 0.158-0.018 0.078-0.068 0.128-0.14 0.1-0.040-0.018-0.083-0.093-0.083-0.14 0-0.19 0.19-0.358 0.396-0.358z"></path>
<path fill="#1b4f7f" style="fill: var(--color15, #1b4f7f)" d="M10.251 16.466c0.21 0.003 0.403 0.055 0.586 0.158 0.075 0.043 0.123 0.1 0.073 0.183-0.045 0.078-0.118 0.063-0.185 0.023-0.208-0.118-0.426-0.16-0.661-0.11-0.075 0.015-0.16 0.028-0.183-0.075-0.025-0.108 0.053-0.138 0.138-0.153 0.075-0.013 0.155-0.018 0.233-0.025z"></path>
<path fill="#1b4f7f" style="fill: var(--color15, #1b4f7f)" d="M25.577 21.286c-0.19 0-0.353-0.138-0.361-0.323-0.003-0.048 0.053-0.098 0.080-0.148 0.048 0.030 0.118 0.053 0.135 0.095 0.030 0.078 0.053 0.153 0.153 0.15 0.093-0.003 0.11-0.075 0.14-0.15 0.015-0.043 0.088-0.065 0.135-0.095 0.028 0.050 0.083 0.1 0.083 0.148-0.010 0.183-0.18 0.323-0.366 0.323z"></path>
<path fill="#1b4f7f" style="fill: var(--color15, #1b4f7f)" d="M27.24 21.286c-0.178-0.008-0.331-0.138-0.343-0.316-0.003-0.050 0.053-0.105 0.083-0.158 0.045 0.033 0.115 0.055 0.133 0.098 0.028 0.075 0.050 0.145 0.143 0.145 0.090 0.003 0.125-0.060 0.143-0.143 0.015-0.073 0.070-0.133 0.14-0.095 0.043 0.023 0.085 0.105 0.078 0.155-0.023 0.193-0.188 0.32-0.376 0.313z"></path>
<path fill="#1b4f7f" style="fill: var(--color15, #1b4f7f)" d="M26.444 21.586c-0.095 0-0.19 0-0.285 0-0.075 0-0.143-0.033-0.123-0.115 0.010-0.043 0.078-0.1 0.12-0.103 0.185-0.013 0.373-0.013 0.561 0 0.048 0.003 0.088 0.073 0.133 0.113-0.043 0.035-0.083 0.093-0.13 0.1-0.090 0.018-0.185 0.005-0.275 0.005z"></path>
<path fill="#1b4f7f" style="fill: var(--color15, #1b4f7f)" d="M46.117 15.87c-0.288-0.078-0.538-0.058-0.789 0.043-0.038 0.015-0.1-0.040-0.153-0.063 0.025-0.050 0.035-0.128 0.075-0.148 0.28-0.135 0.578-0.153 0.876-0.068 0.040 0.013 0.088 0.090 0.088 0.138 0 0.038-0.070 0.073-0.098 0.098z"></path>
<path fill="#1b4f7f" style="fill: var(--color15, #1b4f7f)" d="M43.591 16.977c-0.143 0-0.255-0.11-0.258-0.25-0.002-0.143 0.118-0.263 0.26-0.263 0.14 0 0.263 0.125 0.258 0.265-0.002 0.143-0.118 0.25-0.26 0.248z"></path>
<path fill="#1b4f7f" style="fill: var(--color15, #1b4f7f)" d="M46.032 16.573c0 0.143-0.105 0.253-0.248 0.255-0.148 0.003-0.265-0.108-0.268-0.253-0.002-0.138 0.113-0.253 0.253-0.255 0.148-0.003 0.26 0.105 0.263 0.253z"></path>
<path fill="#febd00" style="fill: var(--color32, #febd00)" d="M17.124 21.832c0.143 0 0.258 0.113 0.258 0.25s-0.118 0.255-0.255 0.253c-0.14-0.003-0.26-0.118-0.26-0.25 0.003-0.138 0.12-0.253 0.258-0.253z"></path>
<path fill="#1b4f7f" style="fill: var(--color15, #1b4f7f)" d="M44.367 17.325c0.035-0.035 0.068-0.045 0.18-0.018 0 0 0.080 0.038 0.253 0.033 0.165-0.005 0.308-0.048 0.536-0.178 0.085-0.048 0.16-0.040 0.178-0.015 0.040 0.058 0.008 0.125 0.005 0.273 0 0.090 0.040 0.125 0.005 0.28-0.005 0.020-0.033 0.12-0.128 0.173-0.12 0.068-0.27 0.028-0.363-0.053-0.095-0.080-0.078-0.168-0.168-0.23-0.050-0.035-0.070-0.008-0.27-0.040-0.265-0.043-0.26-0.088-0.263-0.115 0-0.035 0.013-0.088 0.035-0.11z"></path>
<path fill="#d77470" style="fill: var(--color33, #d77470)" d="M45.293 17.505c-0.010 0.043-0.023 0.088-0.033 0.13-0.040-0.020-0.078-0.040-0.15-0.078 0.073-0.038 0.108-0.055 0.14-0.070 0.015 0.008 0.030 0.013 0.043 0.018z"></path>
<path fill="#fdbcaa" style="fill: var(--color31, #fdbcaa)" d="M8.075 18.091c0 0.201-0.163 0.363-0.363 0.363s-0.363-0.163-0.363-0.363c0-0.201 0.163-0.363 0.363-0.363s0.363 0.163 0.363 0.363z"></path>
<path fill="#fdbcaa" style="fill: var(--color31, #fdbcaa)" d="M10.629 18.191c0 0.201-0.163 0.363-0.363 0.363s-0.363-0.163-0.363-0.363c0-0.201 0.163-0.363 0.363-0.363s0.363 0.163 0.363 0.363z"></path>
<path fill="#fdbcaa" style="fill: var(--color31, #fdbcaa)" d="M16.138 13.083c0 0.201-0.163 0.363-0.363 0.363s-0.363-0.163-0.363-0.363c0-0.201 0.163-0.363 0.363-0.363s0.363 0.163 0.363 0.363z"></path>
<path fill="#fdbcaa" style="fill: var(--color31, #fdbcaa)" d="M44.114 17.437c0 0.201-0.163 0.363-0.363 0.363s-0.363-0.163-0.363-0.363c0-0.201 0.163-0.363 0.363-0.363s0.363 0.163 0.363 0.363z"></path>
<path fill="#fdbcaa" style="fill: var(--color31, #fdbcaa)" d="M46.443 17.262c0 0.201-0.163 0.363-0.363 0.363s-0.363-0.163-0.363-0.363c0-0.201 0.163-0.363 0.363-0.363s0.363 0.163 0.363 0.363z"></path>
<path fill="#d0dce8" style="fill: var(--color34, #d0dce8)" d="M23.592 25.668h-21.028l0.12 0.293 20.848 0.003 0.185-0.295z"></path>
<path fill="#d0dce8" style="fill: var(--color34, #d0dce8)" d="M50.9 25.658l-22.643 0.008v0.203c0 0 0.078 0.015 0.1 0.025 0.025 0.013 0.090 0.065 0.090 0.065l22.342 0.008 0.11-0.308z"></path>
<path fill="#d0dce8" style="fill: var(--color34, #d0dce8)" d="M24.919 25.663c0 0-0.058-0.010-0.090 0.028-0.038 0.043-0.088 0.18-0.085 0.175l0.15 0.093h0.093l2.261 0.005c0 0 0.060-0.068 0.128-0.093 0.113-0.040 0.025-0.213 0.025-0.213l-2.481 0.005z"></path>
</symbol>
<symbol id="icon-gologo" viewBox="0 0 98 32">
<title>gologo</title>
<path fill="#fec240" style="fill: var(--color35, #fec240)" d="M35.414 7.811l56.042-3.415 1.236 20.289-56.042 3.415z"></path>
<path fill="#fff" style="fill: var(--color1, #fff); stroke: var(--color1, #fff)" stroke="#fff" stroke-linejoin="miter" stroke-linecap="butt" stroke-miterlimit="10" stroke-width="0.612" d="M43.034 13.425l1.88-0.114 0.52 8.551-1.88 0.114-0.52-8.551zM50.107 14.732l-2.601 0.157-0.105-1.736 7.086-0.433 0.105 1.736-2.601 0.157 0.415 6.82-1.88 0.114-0.42-6.815zM55.187 17.993c-0.114-1.871 1.123-3.489 3.029-3.607 2.186-0.131 3.292 1.504 3.405 3.362 0.009 0.149 0.009 0.319 0.004 0.49l-4.555 0.28c0.236 0.831 0.848 1.237 1.679 1.185 0.625-0.039 1.062-0.262 1.548-0.769l1.119 0.874c-0.564 0.796-1.416 1.311-2.601 1.386-1.967 0.118-3.502-1.172-3.628-3.2zM59.773 17.185c-0.162-0.826-0.682-1.355-1.464-1.307-0.769 0.048-1.237 0.625-1.333 1.478l2.798-0.171zM63.41 17.491c-0.114-1.871 1.123-3.489 3.030-3.607 2.186-0.131 3.292 1.504 3.405 3.362 0.009 0.149 0.009 0.319 0.004 0.49l-4.555 0.28c0.236 0.831 0.848 1.237 1.679 1.185 0.625-0.039 1.062-0.262 1.548-0.769l1.119 0.874c-0.564 0.796-1.416 1.311-2.601 1.386-1.967 0.122-3.502-1.172-3.628-3.2zM67.996 16.686c-0.162-0.826-0.682-1.355-1.464-1.307-0.769 0.048-1.237 0.625-1.333 1.478l2.798-0.171zM71.751 13.683l1.858-0.114 0.057 0.927c0.393-0.577 0.914-1.11 1.854-1.167 1.403-0.087 2.282 0.791 2.374 2.295l0.258 4.24-1.858 0.114-0.223-3.655c-0.052-0.879-0.498-1.307-1.207-1.263s-1.132 0.525-1.080 1.403l0.223 3.655-1.858 0.114-0.398-6.549zM79.93 18.89l0.721-1.272c0.739 0.472 1.499 0.695 2.111 0.656 0.538-0.031 0.769-0.245 0.752-0.56-0.026-0.402-0.669-0.498-1.403-0.673-0.931-0.214-1.998-0.577-2.076-1.871-0.083-1.333 0.949-2.142 2.269-2.221 0.831-0.052 1.753 0.175 2.492 0.608l-0.629 1.325c-0.669-0.341-1.333-0.533-1.81-0.503-0.45 0.026-0.673 0.236-0.656 0.52 0.022 0.367 0.656 0.498 1.381 0.699 0.936 0.249 2.024 0.625 2.098 1.845 0.087 1.456-0.957 2.181-2.374 2.264-0.922 0.057-1.967-0.188-2.877-0.817z"></path>
<path fill="#000" style="fill: var(--color36, #000)" d="M25.687 13.552c-0.442-0.42-1.023-0.643-1.639-0.643-0.052 0-0.105 0-0.157 0.004-0.682 0.039-1.281 0.341-1.696 0.844-0.407 0.494-0.608 1.15-0.564 1.845 0.044 0.682 0.323 1.307 0.796 1.753 0.481 0.455 1.119 0.682 1.797 0.638 1.377-0.083 2.348-1.237 2.26-2.689-0.039-0.686-0.323-1.307-0.796-1.753zM37.333 13.823l-6.925-8.887-29.762 1.81 1.237 20.289 29.762-1.81 5.819-9.373 0.643-1.049-0.774-0.979zM16.87 19.169c-1.058 1.014-2.326 1.574-3.76 1.661-0.118 0.009-0.232 0.009-0.35 0.009-1.22 0-2.339-0.398-3.178-1.132-0.909-0.8-1.456-1.967-1.534-3.283-0.079-1.263 0.332-2.47 1.15-3.401 0.831-0.944 2.011-1.508 3.327-1.587 1.482-0.092 2.531 0.205 3.624 1.023l0.157 0.118-1.351 1.845-0.157-0.118c-0.669-0.49-1.242-0.765-2.203-0.708-0.616 0.039-1.176 0.337-1.582 0.839-0.407 0.507-0.608 1.158-0.568 1.84 0.044 0.721 0.328 1.36 0.8 1.801 0.472 0.437 1.11 0.656 1.797 0.616 0.621-0.039 1.167-0.219 1.582-0.529l-0.057-0.944-1.928 0.118-0.127-2.046 4.175-0.254 0.249 4.070-0.066 0.061zM27.711 18.557c-0.844 0.944-2.046 1.508-3.379 1.591-0.109 0.009-0.223 0.009-0.332 0.009-1.211 0-2.339-0.411-3.204-1.172-0.927-0.817-1.482-1.972-1.561-3.244-0.079-1.263 0.337-2.474 1.167-3.401 0.844-0.944 2.046-1.508 3.379-1.591 1.338-0.083 2.592 0.332 3.537 1.158 0.927 0.818 1.482 1.972 1.561 3.244 0.079 1.268-0.337 2.479-1.167 3.405z"></path>
<path fill="#fff" style="fill: var(--color1, #fff); stroke: var(--color1, #fff)" stroke="#fff" stroke-linejoin="miter" stroke-linecap="butt" stroke-miterlimit="10" stroke-width="0.612" d="M8.24 16.428c-0.149-2.431 1.626-4.538 4.214-4.695 1.539-0.092 2.492 0.267 3.432 0.966l-1.097 1.504c-0.695-0.511-1.298-0.791-2.291-0.73-1.368 0.083-2.383 1.36-2.291 2.837 0.096 1.565 1.242 2.645 2.754 2.553 0.686-0.044 1.285-0.249 1.74-0.621l-0.074-1.22-1.893 0.114-0.101-1.626 3.716-0.227 0.227 3.716c-0.835 0.8-2.007 1.482-3.572 1.578-2.662 0.162-4.608-1.596-4.765-4.149zM19.589 15.799c-0.149-2.431 1.648-4.538 4.289-4.699s4.651 1.692 4.804 4.149c0.149 2.431-1.648 4.538-4.289 4.699-2.64 0.157-4.656-1.692-4.804-4.149zM26.71 15.366c-0.087-1.464-1.237-2.623-2.754-2.531s-2.492 1.355-2.4 2.846c0.087 1.464 1.237 2.623 2.754 2.531 1.513-0.096 2.492-1.355 2.4-2.846z"></path>
</symbol>
</defs>
</svg>
